<?xml version="1.0" encoding="UTF-8"?>
<!DOCTYPE svg PUBLIC "-//W3C//DTD SVG 1.1//EN" "http://www.w3.org/Graphics/SVG/1.1/DTD/svg11.dtd">
<svg xmlns="http://www.w3.org/2000/svg" version="1.1" width="2000px" height="2000px" style="shape-rendering:geometricPrecision; text-rendering:geometricPrecision; image-rendering:optimizeQuality; fill-rule:evenodd; clip-rule:evenodd" xmlns:xlink="http://www.w3.org/1999/xlink">
<g><path style="opacity:1" fill="#a8a2a2" d="M 1138.5,364.5 C 1002.32,414.988 890.817,498.321 804,614.5C 747.484,692.224 710.651,778.557 693.5,873.5C 692.653,874.966 691.32,875.8 689.5,876C 632.364,882.896 576.364,877.729 521.5,860.5C 496.948,852.06 474.615,839.727 454.5,823.5C 433.839,806.845 420.839,785.512 415.5,759.5C 481.181,601.651 591.181,485.817 745.5,412C 871.53,355.371 1002.53,339.538 1138.5,364.5 Z"/></g>
<g><path style="opacity:1" fill="#d9d9d9" d="M 1138.5,364.5 C 1323.12,403.493 1465.95,502.16 1567,660.5C 1621.73,750.179 1652.89,847.513 1660.5,952.5C 1639.34,981.515 1619.51,1011.52 1601,1042.5C 1581.43,1068.74 1561.09,1094.41 1540,1119.5C 1527.66,1132.01 1515.16,1144.34 1502.5,1156.5C 1489.69,1166.75 1475.69,1175.25 1460.5,1182C 1448.95,1186.74 1436.95,1188.58 1424.5,1187.5C 1415.23,1186.23 1410.57,1180.9 1410.5,1171.5C 1411.15,1166.39 1412.31,1161.39 1414,1156.5C 1416.86,1150.78 1419.69,1145.11 1422.5,1139.5C 1430.99,1125.86 1439.99,1112.52 1449.5,1099.5C 1457.85,1089.14 1465.85,1078.47 1473.5,1067.5C 1482.88,1056.12 1491.88,1044.46 1500.5,1032.5C 1525.8,1002.35 1548.63,970.351 1569,936.5C 1573.89,926.723 1578.22,916.723 1582,906.5C 1589.93,877.87 1579.1,862.037 1549.5,859C 1531.29,856.554 1514.63,860.387 1499.5,870.5C 1477.73,882.383 1457.73,896.717 1439.5,913.5C 1420.62,929.202 1402.46,945.868 1385,963.5C 1384.33,962.833 1384.33,962.167 1385,961.5C 1387.72,958.29 1390.22,954.956 1392.5,951.5C 1398.55,945.078 1403.88,938.078 1408.5,930.5C 1413.52,924.81 1418.18,918.81 1422.5,912.5C 1435.92,894.567 1449.59,876.734 1463.5,859C 1447.33,858.172 1431.33,858.339 1415.5,859.5C 1412.6,862.952 1409.93,866.618 1407.5,870.5C 1401.34,878.14 1395.68,886.14 1390.5,894.5C 1381.79,905.883 1373.45,917.55 1365.5,929.5C 1356.35,941.138 1347.68,953.138 1339.5,965.5C 1330.48,977.197 1321.81,989.197 1313.5,1001.5C 1303.45,1014.88 1293.79,1028.55 1284.5,1042.5C 1275.35,1053.46 1266.68,1064.8 1258.5,1076.5C 1249.48,1086.85 1240.82,1097.52 1232.5,1108.5C 1215.39,1129.06 1196.73,1148.06 1176.5,1165.5C 1166.07,1173.4 1154.73,1179.9 1142.5,1185C 1134,1187.43 1125.34,1188.59 1116.5,1188.5C 1104.23,1187.27 1096.73,1180.6 1094,1168.5C 1093.33,1163.17 1093.33,1157.83 1094,1152.5C 1096.98,1140.04 1101.15,1128.04 1106.5,1116.5C 1112.58,1104.68 1118.91,1093.01 1125.5,1081.5C 1133.8,1069.52 1142.13,1057.52 1150.5,1045.5C 1159.49,1033.54 1168.49,1021.54 1177.5,1009.5C 1187.88,996.455 1197.88,983.122 1207.5,969.5C 1216.52,958.475 1225.19,947.142 1233.5,935.5C 1242.19,924.808 1250.52,913.808 1258.5,902.5C 1270.05,888.418 1281.39,874.085 1292.5,859.5C 1284.5,859.167 1276.5,858.833 1268.5,858.5C 1260.14,858.502 1252.14,859.169 1244.5,860.5C 1240.02,865.467 1236.02,870.8 1232.5,876.5C 1222.86,887.785 1214.19,899.785 1206.5,912.5C 1195.76,926.301 1185.76,940.634 1176.5,955.5C 1167.02,968.451 1158.02,981.784 1149.5,995.5C 1140.81,1007.54 1132.47,1019.87 1124.5,1032.5C 1118.43,1041.64 1112.09,1050.64 1105.5,1059.5C 1098.27,1068.28 1091.27,1077.28 1084.5,1086.5C 1071.89,1102.68 1058.55,1118.35 1044.5,1133.5C 1034.1,1145.24 1022.77,1155.9 1010.5,1165.5C 998.979,1174.59 986.312,1181.59 972.5,1186.5C 960.327,1189.65 948.327,1189.15 936.5,1185C 930.16,1182.15 926.326,1177.32 925,1170.5C 924.333,1165.5 924.333,1160.5 925,1155.5C 927.142,1146.58 929.975,1137.91 933.5,1129.5C 938.895,1119.05 944.561,1108.71 950.5,1098.5C 958.134,1087.19 965.8,1075.86 973.5,1064.5C 980.733,1055.05 987.733,1045.38 994.5,1035.5C 1000.52,1028.14 1006.19,1020.47 1011.5,1012.5C 1017.26,1006.4 1022.26,999.738 1026.5,992.5C 1029.52,989.48 1032.18,986.146 1034.5,982.5C 1040.88,974.788 1046.88,966.788 1052.5,958.5C 1056.55,954.746 1059.88,950.413 1062.5,945.5C 1066.52,940.804 1070.19,935.804 1073.5,930.5C 1077.99,924.852 1081.99,918.852 1085.5,912.5C 1095.05,901.702 1099.22,889.036 1098,874.5C 1096.49,867.164 1092.32,862.164 1085.5,859.5C 1083.03,858.366 1080.37,858.199 1077.5,859C 1075.61,861.382 1073.94,863.882 1072.5,866.5C 1068.35,871.448 1064.69,876.782 1061.5,882.5C 1057.43,886.976 1054.09,891.976 1051.5,897.5C 1045.01,905.81 1039.01,914.476 1033.5,923.5C 1030.12,927.553 1027.12,931.886 1024.5,936.5C 1019.48,942.867 1014.81,949.534 1010.5,956.5C 1004.67,964.148 999.34,972.148 994.5,980.5C 986.676,990.811 979.342,1001.48 972.5,1012.5C 964.476,1023.2 956.81,1034.2 949.5,1045.5C 943.086,1053.99 937.42,1062.99 932.5,1072.5C 916.531,1096.07 906.864,1122.07 903.5,1150.5C 904.294,1174.12 916.294,1187.96 939.5,1192C 950.347,1194.4 961.014,1193.9 971.5,1190.5C 986.338,1185.75 999.671,1178.42 1011.5,1168.5C 1023.77,1158.9 1035.1,1148.24 1045.5,1136.5C 1060.58,1121.66 1074.25,1105.66 1086.5,1088.5C 1088.84,1086.34 1090.84,1083.84 1092.5,1081C 1093.17,1080.33 1093.83,1080.33 1094.5,1081C 1087.09,1091.99 1081.42,1103.82 1077.5,1116.5C 1070.78,1131.85 1068.95,1147.85 1072,1164.5C 1073.34,1168.51 1075.17,1172.17 1077.5,1175.5C 1087.2,1187.31 1099.87,1192.97 1115.5,1192.5C 1124.97,1193.87 1134.3,1192.71 1143.5,1189C 1155.69,1183.41 1167.03,1176.58 1177.5,1168.5C 1196.87,1152.12 1214.87,1134.46 1231.5,1115.5C 1212.66,1141.18 1194,1167.01 1175.5,1193C 1187.9,1193.88 1200.23,1193.38 1212.5,1191.5C 1219.94,1182.08 1226.94,1172.41 1233.5,1162.5C 1242.19,1151.81 1250.52,1140.81 1258.5,1129.5C 1268.26,1118.07 1277.26,1106.07 1285.5,1093.5C 1295.64,1081.23 1305.31,1068.57 1314.5,1055.5C 1323.97,1043.9 1332.97,1031.9 1341.5,1019.5C 1349.8,1008.86 1358.14,998.191 1366.5,987.5C 1389.53,964.132 1413.2,941.465 1437.5,919.5C 1457.66,903.261 1478.66,888.261 1500.5,874.5C 1514.38,865.778 1529.38,862.612 1545.5,865C 1552.53,867.056 1555.86,871.723 1555.5,879C 1555.54,883.662 1554.71,888.162 1553,892.5C 1545.61,908.285 1536.94,923.285 1527,937.5C 1517.82,949.863 1508.66,962.196 1499.5,974.5C 1490.12,985.876 1481.12,997.543 1472.5,1009.5C 1464.07,1018.92 1456.41,1028.92 1449.5,1039.5C 1439.19,1051.45 1429.86,1064.11 1421.5,1077.5C 1405.13,1098.55 1392.63,1121.89 1384,1147.5C 1378.71,1175.06 1390.21,1189.73 1418.5,1191.5C 1450.19,1193.6 1477.86,1183.94 1501.5,1162.5C 1515.07,1151.44 1527.9,1139.44 1540,1126.5C 1555.05,1108.46 1569.71,1090.12 1584,1071.5C 1575.71,1089.44 1569.05,1108.11 1564,1127.5C 1560.34,1142.63 1560.67,1157.63 1565,1172.5C 1569.98,1184.25 1578.82,1191.08 1591.5,1193C 1598.9,1193.85 1606.23,1193.51 1613.5,1192C 1621.43,1189.03 1629.1,1185.53 1636.5,1181.5C 1613.38,1259.41 1577.38,1330.41 1528.5,1394.5C 1526.64,1393.03 1525.3,1391.03 1524.5,1388.5C 1520.17,1387.17 1515.83,1387.17 1511.5,1388.5C 1503.41,1407.01 1495.08,1425.34 1486.5,1443.5C 1485.83,1443.5 1485.5,1443.83 1485.5,1444.5C 1406.43,1527.39 1311.77,1585.39 1201.5,1618.5C 1089.22,1588.54 989.883,1535.37 903.5,1459C 905.708,1458.81 907.708,1458.31 909.5,1457.5C 909.5,1453.83 909.5,1450.17 909.5,1446.5C 902.833,1446.5 896.167,1446.5 889.5,1446.5C 884.004,1440.17 878.004,1434.34 871.5,1429C 882.495,1428.5 893.495,1428.33 904.5,1428.5C 904.815,1424.63 904.482,1420.96 903.5,1417.5C 892.5,1417.5 881.5,1417.5 870.5,1417.5C 870.5,1411.17 870.5,1404.83 870.5,1398.5C 882.833,1398.5 895.167,1398.5 907.5,1398.5C 907.5,1395.17 907.5,1391.83 907.5,1388.5C 891.342,1387.5 875.009,1387.17 858.5,1387.5C 858.5,1396.5 858.5,1405.5 858.5,1414.5C 812.678,1365.98 775.011,1311.65 745.5,1251.5C 784.776,1237.37 822.776,1220.2 859.5,1200C 858.328,1197.95 856.661,1197.28 854.5,1198C 818.729,1216.98 781.395,1232.15 742.5,1243.5C 714.103,1183.93 695.936,1121.26 688,1055.5C 685.003,1024.74 683.17,994.076 682.5,963.5C 706.048,934.783 729.048,905.617 751.5,876C 790.589,864.248 829.256,851.415 867.5,837.5C 883.578,831.697 899.578,825.697 915.5,819.5C 927.346,814.739 939.013,809.739 950.5,804.5C 965.573,798.927 980.239,792.593 994.5,785.5C 1005.48,781.01 1016.14,776.01 1026.5,770.5C 1035.48,766.675 1044.15,762.341 1052.5,757.5C 1059.5,754.337 1066.16,750.671 1072.5,746.5C 1090.68,737.292 1108.35,727.292 1125.5,716.5C 1143.52,705.824 1160.86,694.158 1177.5,681.5C 1187.81,673.85 1197.81,665.85 1207.5,657.5C 1227.27,641.737 1244.6,623.737 1259.5,603.5C 1286.71,572.227 1301.37,535.727 1303.5,494C 1304.18,483.048 1301.68,472.881 1296,463.5C 1293.29,459.288 1289.79,455.954 1285.5,453.5C 1278.02,447.274 1269.36,443.44 1259.5,442C 1244.54,439.413 1229.54,438.913 1214.5,440.5C 1191.65,442.202 1169.65,447.202 1148.5,455.5C 1125.67,463.085 1104,473.085 1083.5,485.5C 1075.5,488.829 1068.17,493.162 1061.5,498.5C 1057.83,500 1054.49,502 1051.5,504.5C 1042.45,510.019 1033.78,516.019 1025.5,522.5C 1020.47,525.345 1015.81,528.679 1011.5,532.5C 1005.1,536.695 999.099,541.361 993.5,546.5C 985.911,551.458 978.911,557.125 972.5,563.5C 964.217,569.449 956.55,576.116 949.5,583.5C 937.208,593.457 925.541,604.124 914.5,615.5C 896.5,631.5 879.5,648.5 863.5,666.5C 854.034,676.113 845.034,686.113 836.5,696.5C 825.471,707.562 815.138,719.229 805.5,731.5C 765.757,777.016 728.424,824.349 693.5,873.5C 710.651,778.557 747.484,692.224 804,614.5C 890.817,498.321 1002.32,414.988 1138.5,364.5 Z"/></g>
<g><path style="opacity:1" fill="#9e6321" d="M 1285.5,453.5 C 1284.76,456.39 1284.09,459.39 1283.5,462.5C 1276.89,454.761 1268.56,449.595 1258.5,447C 1241.91,444.277 1225.24,443.777 1208.5,445.5C 1207.57,444.432 1207.23,443.099 1207.5,441.5C 1210.06,441.802 1212.39,441.468 1214.5,440.5C 1229.54,438.913 1244.54,439.413 1259.5,442C 1269.36,443.44 1278.02,447.274 1285.5,453.5 Z"/></g>
<g><path style="opacity:1" fill="#d9d9d9" d="M 1283.5,462.5 C 1287.66,468.483 1290.16,475.15 1291,482.5C 1292.92,505.579 1288.92,527.579 1279,548.5C 1272.78,561.515 1265.61,573.849 1257.5,585.5C 1241.18,604.49 1223.84,622.49 1205.5,639.5C 1195.31,648.084 1184.98,656.417 1174.5,664.5C 1157.42,676.923 1140.09,688.923 1122.5,700.5C 1105.33,710.251 1088.33,720.251 1071.5,730.5C 1064.5,733.663 1057.84,737.329 1051.5,741.5C 1042.02,745.405 1033.02,750.072 1024.5,755.5C 1013.73,759.719 1003.4,764.719 993.5,770.5C 978.089,777.517 962.756,784.517 947.5,791.5C 935.923,796.129 924.59,801.129 913.5,806.5C 896.942,812.793 880.608,819.459 864.5,826.5C 830.43,839.413 796.097,851.747 761.5,863.5C 761.167,863.333 760.833,863.167 760.5,863C 775.689,840.992 791.022,819.159 806.5,797.5C 816.822,784.205 827.155,770.872 837.5,757.5C 847.397,745.387 857.064,733.054 866.5,720.5C 882.804,701.192 899.137,681.858 915.5,662.5C 927.157,649.875 938.824,637.208 950.5,624.5C 958.139,616.526 965.806,608.526 973.5,600.5C 980.833,593.833 987.833,586.833 994.5,579.5C 1000.8,574.871 1006.46,569.538 1011.5,563.5C 1016.82,559.511 1021.82,555.178 1026.5,550.5C 1035.35,542.586 1044.35,534.919 1053.5,527.5C 1056.72,525.397 1059.72,523.064 1062.5,520.5C 1069.52,515.136 1076.52,509.802 1083.5,504.5C 1104.74,489.377 1127.08,476.043 1150.5,464.5C 1169.22,456.149 1188.55,449.815 1208.5,445.5C 1225.24,443.777 1241.91,444.277 1258.5,447C 1268.56,449.595 1276.89,454.761 1283.5,462.5 Z"/></g>
<g><path style="opacity:1" fill="#8b4d1b" d="M 1214.5,440.5 C 1212.39,441.468 1210.06,441.802 1207.5,441.5C 1207.23,443.099 1207.57,444.432 1208.5,445.5C 1188.55,449.815 1169.22,456.149 1150.5,464.5C 1151.05,460.988 1150.39,457.988 1148.5,455.5C 1169.65,447.202 1191.65,442.202 1214.5,440.5 Z"/></g>
<g><path style="opacity:1" fill="#a16512" d="M 1285.5,453.5 C 1289.79,455.954 1293.29,459.288 1296,463.5C 1301.68,472.881 1304.18,483.048 1303.5,494C 1301.37,535.727 1286.71,572.227 1259.5,603.5C 1258.83,597.5 1258.17,591.5 1257.5,585.5C 1265.61,573.849 1272.78,561.515 1279,548.5C 1288.92,527.579 1292.92,505.579 1291,482.5C 1290.16,475.15 1287.66,468.483 1283.5,462.5C 1284.09,459.39 1284.76,456.39 1285.5,453.5 Z"/></g>
<g><path style="opacity:1" fill="#7d3b15" d="M 1148.5,455.5 C 1150.39,457.988 1151.05,460.988 1150.5,464.5C 1127.08,476.043 1104.74,489.377 1083.5,504.5C 1082.19,498.266 1082.19,491.932 1083.5,485.5C 1104,473.085 1125.67,463.085 1148.5,455.5 Z"/></g>
<g><path style="opacity:1" fill="#8b4c20" d="M 1083.5,485.5 C 1082.19,491.932 1082.19,498.266 1083.5,504.5C 1076.52,509.802 1069.52,515.136 1062.5,520.5C 1062.82,512.981 1062.49,505.648 1061.5,498.5C 1068.17,493.162 1075.5,488.829 1083.5,485.5 Z"/></g>
<g><path style="opacity:1" fill="#995c26" d="M 1061.5,498.5 C 1062.49,505.648 1062.82,512.981 1062.5,520.5C 1059.72,523.064 1056.72,525.397 1053.5,527.5C 1051.53,520.24 1050.87,512.573 1051.5,504.5C 1054.49,502 1057.83,500 1061.5,498.5 Z"/></g>
<g><path style="opacity:1" fill="#ab7131" d="M 1051.5,504.5 C 1050.87,512.573 1051.53,520.24 1053.5,527.5C 1044.35,534.919 1035.35,542.586 1026.5,550.5C 1026.83,540.985 1026.49,531.652 1025.5,522.5C 1033.78,516.019 1042.45,510.019 1051.5,504.5 Z"/></g>
<g><path style="opacity:1" fill="#b77f37" d="M 1025.5,522.5 C 1026.49,531.652 1026.83,540.985 1026.5,550.5C 1021.82,555.178 1016.82,559.511 1011.5,563.5C 1011.5,553.167 1011.5,542.833 1011.5,532.5C 1015.81,528.679 1020.47,525.345 1025.5,522.5 Z"/></g>
<g><path style="opacity:1" fill="#c28c3d" d="M 1011.5,532.5 C 1011.5,542.833 1011.5,553.167 1011.5,563.5C 1006.46,569.538 1000.8,574.871 994.5,579.5C 994.828,568.321 994.495,557.321 993.5,546.5C 999.099,541.361 1005.1,536.695 1011.5,532.5 Z"/></g>
<g><path style="opacity:1" fill="#ce9a44" d="M 993.5,546.5 C 994.495,557.321 994.828,568.321 994.5,579.5C 987.833,586.833 980.833,593.833 973.5,600.5C 973.829,587.989 973.495,575.655 972.5,563.5C 978.911,557.125 985.911,551.458 993.5,546.5 Z"/></g>
<g><path style="opacity:1" fill="#d8a64a" d="M 972.5,563.5 C 973.495,575.655 973.829,587.989 973.5,600.5C 965.806,608.526 958.139,616.526 950.5,624.5C 950.829,610.656 950.496,596.99 949.5,583.5C 956.55,576.116 964.217,569.449 972.5,563.5 Z"/></g>
<g><path style="opacity:1" fill="#e4b350" d="M 949.5,583.5 C 950.496,596.99 950.829,610.656 950.5,624.5C 938.824,637.208 927.157,649.875 915.5,662.5C 915.83,646.658 915.496,630.991 914.5,615.5C 925.541,604.124 937.208,593.457 949.5,583.5 Z"/></g>
<g><path style="opacity:1" fill="#935512" d="M 1257.5,585.5 C 1258.17,591.5 1258.83,597.5 1259.5,603.5C 1244.6,623.737 1227.27,641.737 1207.5,657.5C 1208.12,651.074 1207.45,645.074 1205.5,639.5C 1223.84,622.49 1241.18,604.49 1257.5,585.5 Z"/></g>
<g><path style="opacity:1" fill="#8c4d12" d="M 1205.5,639.5 C 1207.45,645.074 1208.12,651.074 1207.5,657.5C 1197.81,665.85 1187.81,673.85 1177.5,681.5C 1177.67,675.491 1177.5,669.491 1177,663.5C 1176.33,664.252 1175.5,664.586 1174.5,664.5C 1184.98,656.417 1195.31,648.084 1205.5,639.5 Z"/></g>
<g><path style="opacity:1" fill="#efbf56" d="M 914.5,615.5 C 915.496,630.991 915.83,646.658 915.5,662.5C 899.137,681.858 882.804,701.192 866.5,720.5C 866.667,702.164 866.5,683.83 866,665.5C 865.329,666.252 864.496,666.586 863.5,666.5C 879.5,648.5 896.5,631.5 914.5,615.5 Z"/></g>
<g><path style="opacity:1" fill="#f2c858" d="M 866.5,720.5 C 857.064,733.054 847.397,745.387 837.5,757.5C 837.83,736.993 837.497,716.66 836.5,696.5C 845.034,686.113 854.034,676.113 863.5,666.5C 864.496,666.586 865.329,666.252 866,665.5C 866.5,683.83 866.667,702.164 866.5,720.5 Z"/></g>
<g><path style="opacity:1" fill="#824211" d="M 1177.5,681.5 C 1160.86,694.158 1143.52,705.824 1125.5,716.5C 1125.67,710.824 1125.5,705.157 1125,699.5C 1124.33,700.252 1123.5,700.586 1122.5,700.5C 1140.09,688.923 1157.42,676.923 1174.5,664.5C 1175.5,664.586 1176.33,664.252 1177,663.5C 1177.5,669.491 1177.67,675.491 1177.5,681.5 Z"/></g>
<g><path style="opacity:1" fill="#f9c858" d="M 836.5,696.5 C 837.497,716.66 837.83,736.993 837.5,757.5C 827.155,770.872 816.822,784.205 806.5,797.5C 805.503,775.673 805.169,753.673 805.5,731.5C 815.138,719.229 825.471,707.562 836.5,696.5 Z"/></g>
<g><path style="opacity:1" fill="#7b3916" d="M 1125.5,716.5 C 1108.35,727.292 1090.68,737.292 1072.5,746.5C 1072.82,740.974 1072.49,735.64 1071.5,730.5C 1088.33,720.251 1105.33,710.251 1122.5,700.5C 1123.5,700.586 1124.33,700.252 1125,699.5C 1125.5,705.157 1125.67,710.824 1125.5,716.5 Z"/></g>
<g><path style="opacity:1" fill="#f9cd5d" d="M 805.5,731.5 C 805.169,753.673 805.503,775.673 806.5,797.5C 791.022,819.159 775.689,840.992 760.5,863C 760.833,863.167 761.167,863.333 761.5,863.5C 796.097,851.747 830.43,839.413 864.5,826.5C 866.225,829.77 867.225,833.436 867.5,837.5C 829.256,851.415 790.589,864.248 751.5,876C 729.048,905.617 706.048,934.783 682.5,963.5C 640.757,1014.92 596.091,1063.92 548.5,1110.5C 547.406,1091.48 547.406,1072.48 548.5,1053.5C 593.711,999.121 638.378,944.288 682.5,889C 637.204,890.908 592.537,886.575 548.5,876C 537.883,872.962 527.55,869.462 517.5,865.5C 519.103,865.688 520.437,865.188 521.5,864C 520.316,862.855 520.316,861.688 521.5,860.5C 576.364,877.729 632.364,882.896 689.5,876C 691.32,875.8 692.653,874.966 693.5,873.5C 728.424,824.349 765.757,777.016 805.5,731.5 Z"/></g>
<g><path style="opacity:1" fill="#e5b538" d="M 415.5,759.5 C 420.839,785.512 433.839,806.845 454.5,823.5C 454.936,825.746 455.603,827.913 456.5,830C 455.181,830.195 453.847,830.028 452.5,829.5C 433.368,814.034 419.701,794.701 411.5,771.5C 407.786,758.787 406.119,745.787 406.5,732.5C 408.467,732.261 410.301,732.594 412,733.5C 411.999,742.466 413.166,751.132 415.5,759.5 Z"/></g>
<g><path style="opacity:1" fill="#965925" d="M 1071.5,730.5 C 1072.49,735.64 1072.82,740.974 1072.5,746.5C 1066.16,750.671 1059.5,754.337 1052.5,757.5C 1051.51,752.36 1051.18,747.026 1051.5,741.5C 1057.84,737.329 1064.5,733.663 1071.5,730.5 Z"/></g>
<g><path style="opacity:1" fill="#ab7233" d="M 1051.5,741.5 C 1051.18,747.026 1051.51,752.36 1052.5,757.5C 1044.15,762.341 1035.48,766.675 1026.5,770.5C 1027.11,765.056 1026.44,760.056 1024.5,755.5C 1033.02,750.072 1042.02,745.405 1051.5,741.5 Z"/></g>
<g><path style="opacity:1" fill="#bf893d" d="M 1024.5,755.5 C 1026.44,760.056 1027.11,765.056 1026.5,770.5C 1016.14,776.01 1005.48,781.01 994.5,785.5C 994.821,780.305 994.487,775.305 993.5,770.5C 1003.4,764.719 1013.73,759.719 1024.5,755.5 Z"/></g>
<g><path style="opacity:1" fill="#a8a2a1" d="M 411.5,771.5 C 419.701,794.701 433.368,814.034 452.5,829.5C 471.871,845.359 493.537,857.359 517.5,865.5C 527.55,869.462 537.883,872.962 548.5,876C 592.537,886.575 637.204,890.908 682.5,889C 638.378,944.288 593.711,999.121 548.5,1053.5C 541.486,1061.18 534.82,1069.18 528.5,1077.5C 521.135,1084.57 514.469,1092.23 508.5,1100.5C 496.609,1113.27 484.942,1126.27 473.5,1139.5C 451.866,1163.14 429.866,1186.47 407.5,1209.5C 406.609,1210.11 405.609,1210.44 404.5,1210.5C 360.04,1076.11 358.207,941.109 399,805.5C 402.901,793.953 407.068,782.619 411.5,771.5 Z"/></g>
<g><path style="opacity:1" fill="#d5a34b" d="M 993.5,770.5 C 994.487,775.305 994.821,780.305 994.5,785.5C 980.239,792.593 965.573,798.927 950.5,804.5C 950.5,800.167 950.5,795.833 950.5,791.5C 949.5,791.5 948.5,791.5 947.5,791.5C 962.756,784.517 978.089,777.517 993.5,770.5 Z"/></g>
<g><path style="opacity:1" fill="#e4b352" d="M 947.5,791.5 C 948.5,791.5 949.5,791.5 950.5,791.5C 950.5,795.833 950.5,800.167 950.5,804.5C 939.013,809.739 927.346,814.739 915.5,819.5C 916.097,814.706 915.43,810.373 913.5,806.5C 924.59,801.129 935.923,796.129 947.5,791.5 Z"/></g>
<g><path style="opacity:1" fill="#eebf58" d="M 913.5,806.5 C 915.43,810.373 916.097,814.706 915.5,819.5C 899.578,825.697 883.578,831.697 867.5,837.5C 867.225,833.436 866.225,829.77 864.5,826.5C 880.608,819.459 896.942,812.793 913.5,806.5 Z"/></g>
<g><path style="opacity:1" fill="#edbf4a" d="M 454.5,823.5 C 474.615,839.727 496.948,852.06 521.5,860.5C 520.316,861.688 520.316,862.855 521.5,864C 520.437,865.188 519.103,865.688 517.5,865.5C 493.537,857.359 471.871,845.359 452.5,829.5C 453.847,830.028 455.181,830.195 456.5,830C 455.603,827.913 454.936,825.746 454.5,823.5 Z"/></g>
<g><path style="opacity:1" fill="#96570a" d="M 1258.5,902.5 C 1250.52,913.808 1242.19,924.808 1233.5,935.5C 1233.83,915.66 1233.5,895.993 1232.5,876.5C 1236.02,870.8 1240.02,865.467 1244.5,860.5C 1249.07,859.559 1253.74,859.226 1258.5,859.5C 1258.5,873.833 1258.5,888.167 1258.5,902.5 Z"/></g>
<g><path style="opacity:1" fill="#9c5e0b" d="M 1258.5,902.5 C 1258.5,888.167 1258.5,873.833 1258.5,859.5C 1253.74,859.226 1249.07,859.559 1244.5,860.5C 1252.14,859.169 1260.14,858.502 1268.5,858.5C 1276.5,858.833 1284.5,859.167 1292.5,859.5C 1281.39,874.085 1270.05,888.418 1258.5,902.5 Z"/></g>
<g><path style="opacity:1" fill="#bb7d03" d="M 1415.5,859.5 C 1417.83,859.5 1420.17,859.5 1422.5,859.5C 1422.5,877.167 1422.5,894.833 1422.5,912.5C 1418.18,918.81 1413.52,924.81 1408.5,930.5C 1407.5,910.674 1407.17,890.674 1407.5,870.5C 1409.93,866.618 1412.6,862.952 1415.5,859.5 Z"/></g>
<g><path style="opacity:1" fill="#bd8405" d="M 1415.5,859.5 C 1431.33,858.339 1447.33,858.172 1463.5,859C 1449.59,876.734 1435.92,894.567 1422.5,912.5C 1422.5,894.833 1422.5,877.167 1422.5,859.5C 1420.17,859.5 1417.83,859.5 1415.5,859.5 Z"/></g>
<g><path style="opacity:1" fill="#ce9607" d="M 1500.5,1032.5 C 1500.83,1012.99 1500.5,993.659 1499.5,974.5C 1508.66,962.196 1517.82,949.863 1527,937.5C 1536.94,923.285 1545.61,908.285 1553,892.5C 1554.71,888.162 1555.54,883.662 1555.5,879C 1555.86,871.723 1552.53,867.056 1545.5,865C 1529.38,862.612 1514.38,865.778 1500.5,874.5C 1498.16,873.789 1497.82,872.456 1499.5,870.5C 1514.63,860.387 1531.29,856.554 1549.5,859C 1579.1,862.037 1589.93,877.87 1582,906.5C 1578.22,916.723 1573.89,926.723 1569,936.5C 1548.63,970.351 1525.8,1002.35 1500.5,1032.5 Z"/></g>
<g><path style="opacity:1" fill="#824119" d="M 1085.5,859.5 C 1085.5,877.167 1085.5,894.833 1085.5,912.5C 1081.99,918.852 1077.99,924.852 1073.5,930.5C 1072.5,909.34 1072.17,888.007 1072.5,866.5C 1073.94,863.882 1075.61,861.382 1077.5,859C 1080.37,858.199 1083.03,858.366 1085.5,859.5 Z"/></g>
<g><path style="opacity:1" fill="#783617" d="M 1085.5,859.5 C 1092.32,862.164 1096.49,867.164 1098,874.5C 1099.22,889.036 1095.05,901.702 1085.5,912.5C 1085.5,894.833 1085.5,877.167 1085.5,859.5 Z"/></g>
<g><path style="opacity:1" fill="#be8700" d="M 1831.5,862.5 C 1831.05,863.458 1830.38,864.292 1829.5,865C 1830.74,864.923 1831.74,865.089 1832.5,865.5C 1831.68,866.386 1830.68,866.719 1829.5,866.5C 1819.45,862.387 1809.45,862.554 1799.5,867C 1786.51,874.165 1774.51,882.665 1763.5,892.5C 1762.23,891.521 1760.9,890.521 1759.5,889.5C 1759.78,886.933 1759.94,884.267 1760,881.5C 1761.49,880.747 1761.65,879.914 1760.5,879C 1761.17,878.667 1761.83,878.333 1762.5,878C 1760.61,876.921 1760.27,875.587 1761.5,874C 1760.83,873.667 1760.17,873.333 1759.5,873C 1760.68,871.855 1760.68,870.688 1759.5,869.5C 1779.4,859.89 1800.4,856.39 1822.5,859C 1825.86,859.505 1828.86,860.672 1831.5,862.5 Z"/></g>
<g><path style="opacity:1" fill="#502601" d="M 1924.5,857.5 C 1930.87,857.17 1937.2,857.504 1943.5,858.5C 1938.49,865.499 1933.16,872.165 1927.5,878.5C 1927.42,877.25 1926.76,876.417 1925.5,876C 1926.5,875.667 1927.5,875.333 1928.5,875C 1926.45,873.798 1924.45,873.464 1922.5,874C 1924.19,871.048 1926.03,870.882 1928,873.5C 1927.57,871.873 1927.4,870.373 1927.5,869C 1929.28,869.979 1930.95,869.646 1932.5,868C 1930.04,866.136 1927.88,866.302 1926,868.5C 1925.1,867.299 1923.93,866.465 1922.5,866C 1923,865.5 1923.5,865 1924,864.5C 1926.03,864.986 1928.19,864.986 1930.5,864.5C 1930.65,863.448 1930.48,862.448 1930,861.5C 1929.67,861.833 1929.33,862.167 1929,862.5C 1927.27,861.751 1925.43,861.251 1923.5,861C 1924.62,860.751 1925.62,860.251 1926.5,859.5C 1925.74,859.089 1924.74,858.923 1923.5,859C 1924.06,858.617 1924.39,858.117 1924.5,857.5 Z"/></g>
<g><path style="opacity:1" fill="#c88f00" d="M 1759.5,869.5 C 1760.68,870.688 1760.68,871.855 1759.5,873C 1760.17,873.333 1760.83,873.667 1761.5,874C 1760.27,875.587 1760.61,876.921 1762.5,878C 1761.83,878.333 1761.17,878.667 1760.5,879C 1761.65,879.914 1761.49,880.747 1760,881.5C 1759.94,884.267 1759.78,886.933 1759.5,889.5C 1760.9,890.521 1762.23,891.521 1763.5,892.5C 1738.98,915.348 1716.64,940.014 1696.5,966.5C 1694.56,964.989 1694.06,962.989 1695,960.5C 1696.84,961.833 1697.34,961.666 1696.5,960C 1697.43,959.612 1698.09,958.945 1698.5,958C 1697.85,956.56 1697.52,955.06 1697.5,953.5C 1700.52,953.636 1702.02,952.302 1702,949.5C 1701.16,951.007 1700,951.507 1698.5,951C 1698.83,950.667 1699.17,950.333 1699.5,950C 1696.38,948.579 1696.04,946.913 1698.5,945C 1695.26,944.717 1694.92,943.883 1697.5,942.5C 1697.29,941.914 1696.96,941.414 1696.5,941C 1697.83,940 1699.17,939 1700.5,938C 1699.5,937.667 1698.5,937.333 1697.5,937C 1699.11,936.28 1700.61,936.446 1702,937.5C 1702.5,937 1703,936.5 1703.5,936C 1702.3,935.097 1701.47,933.931 1701,932.5C 1700.27,934.158 1699.11,934.658 1697.5,934C 1698.83,932.667 1700.17,931.333 1701.5,930C 1700.22,929.316 1699.05,929.483 1698,930.5C 1697.1,929.23 1695.93,928.23 1694.5,927.5C 1695,926.5 1695.5,925.5 1696,924.5C 1696.91,925.654 1697.75,925.487 1698.5,924C 1695.17,920.964 1695.5,917.964 1699.5,915C 1699,914.5 1698.5,914 1698,913.5C 1697.09,915.439 1695.59,916.439 1693.5,916.5C 1712.19,896.142 1734.19,880.475 1759.5,869.5 Z"/></g>
<g><path style="opacity:1" fill="#b57d04" d="M 1407.5,870.5 C 1407.17,890.674 1407.5,910.674 1408.5,930.5C 1403.88,938.078 1398.55,945.078 1392.5,951.5C 1392.67,932.164 1392.5,912.83 1392,893.5C 1391.62,894.056 1391.12,894.389 1390.5,894.5C 1395.68,886.14 1401.34,878.14 1407.5,870.5 Z"/></g>
<g><path style="opacity:1" fill="#8d4f1f" d="M 1072.5,866.5 C 1072.17,888.007 1072.5,909.34 1073.5,930.5C 1070.19,935.804 1066.52,940.804 1062.5,945.5C 1062.83,924.327 1062.5,903.327 1061.5,882.5C 1064.69,876.782 1068.35,871.448 1072.5,866.5 Z"/></g>
<g><path style="opacity:1" fill="#7a4c00" d="M 1905.5,857.5 C 1905.23,859.314 1905.06,861.314 1905,863.5C 1904.33,862.833 1903.67,862.167 1903,861.5C 1901.01,864.587 1901.51,866.754 1904.5,868C 1904.17,868.333 1903.83,868.667 1903.5,869C 1904.5,869.333 1905.5,869.667 1906.5,870C 1905.17,870.667 1905.17,871.333 1906.5,872C 1903.46,872.359 1903.12,873.026 1905.5,874C 1903.29,874.388 1901.95,875.388 1901.5,877C 1902.67,877.5 1903.5,878.333 1904,879.5C 1904.33,878.167 1904.67,876.833 1905,875.5C 1907.2,879.784 1906.03,881.618 1901.5,881C 1902.88,882.324 1903.21,883.657 1902.5,885C 1904.61,885.906 1905.45,887.406 1905,889.5C 1903.92,887.233 1902.42,887.066 1900.5,889C 1902.39,890.101 1903.06,891.434 1902.5,893C 1904.89,893.284 1905.55,894.284 1904.5,896C 1905.83,896.333 1907.17,896.667 1908.5,897C 1906.57,897.124 1904.74,897.958 1903,899.5C 1902.22,901.433 1902.72,902.933 1904.5,904C 1902.11,904.691 1902.11,905.691 1904.5,907C 1898.83,907.464 1898.49,908.131 1903.5,909C 1900.9,909.779 1900.9,910.279 1903.5,910.5C 1901.18,914.146 1898.52,917.48 1895.5,920.5C 1894.19,919.768 1892.86,918.934 1891.5,918C 1893.89,917.309 1893.89,916.309 1891.5,915C 1893.81,914.729 1894.97,915.895 1895,918.5C 1896.17,916 1897.33,913.5 1898.5,911C 1897.26,910.544 1896.42,911.044 1896,912.5C 1893.81,910.611 1893.31,908.444 1894.5,906C 1892.43,905.676 1892.1,904.842 1893.5,903.5C 1892.48,902.646 1891.64,901.646 1891,900.5C 1889.95,901.517 1888.78,901.684 1887.5,901C 1888.62,899.956 1889.96,899.29 1891.5,899C 1890.38,898.751 1889.38,898.251 1888.5,897.5C 1889.17,897.167 1889.83,896.833 1890.5,896.5C 1889.86,895.268 1889.69,893.935 1890,892.5C 1888.67,893.167 1887.33,893.833 1886,894.5C 1885.83,894.167 1885.67,893.833 1885.5,893.5C 1887.38,892.94 1889.38,891.773 1891.5,890C 1890.02,887.332 1888.52,887.165 1887,889.5C 1886.83,889 1886.67,888.5 1886.5,888C 1888.17,885.493 1889.01,882.993 1889,880.5C 1889.33,881.833 1889.67,883.167 1890,884.5C 1891.12,881.943 1891.29,879.443 1890.5,877C 1893.29,874.626 1892.95,873.293 1889.5,873C 1890.5,872.167 1891.5,871.333 1892.5,870.5C 1891.75,870.264 1890.92,869.93 1890,869.5C 1890.11,868.231 1889.94,867.231 1889.5,866.5C 1891.12,863.433 1893.12,860.599 1895.5,858C 1898.82,857.502 1902.15,857.335 1905.5,857.5 Z"/></g>
<g><path style="opacity:1" fill="#603500" d="M 1910.5,857.5 C 1915.17,857.5 1919.83,857.5 1924.5,857.5C 1924.39,858.117 1924.06,858.617 1923.5,859C 1924.74,858.923 1925.74,859.089 1926.5,859.5C 1925.62,860.251 1924.62,860.751 1923.5,861C 1925.43,861.251 1927.27,861.751 1929,862.5C 1929.33,862.167 1929.67,861.833 1930,861.5C 1930.48,862.448 1930.65,863.448 1930.5,864.5C 1928.19,864.986 1926.03,864.986 1924,864.5C 1923.5,865 1923,865.5 1922.5,866C 1923.93,866.465 1925.1,867.299 1926,868.5C 1927.88,866.302 1930.04,866.136 1932.5,868C 1930.95,869.646 1929.28,869.979 1927.5,869C 1927.4,870.373 1927.57,871.873 1928,873.5C 1926.03,870.882 1924.19,871.048 1922.5,874C 1924.45,873.464 1926.45,873.798 1928.5,875C 1927.5,875.333 1926.5,875.667 1925.5,876C 1926.76,876.417 1927.42,877.25 1927.5,878.5C 1923.89,884.715 1919.56,890.382 1914.5,895.5C 1913.29,894.12 1913.63,892.953 1915.5,892C 1914.89,889.942 1913.89,889.109 1912.5,889.5C 1913.43,888.094 1914.43,886.594 1915.5,885C 1915.27,881.962 1914.93,879.296 1914.5,877C 1917,875.451 1917,873.784 1914.5,872C 1917.74,871.717 1918.08,870.883 1915.5,869.5C 1914.91,869.709 1914.41,870.043 1914,870.5C 1912.25,868.788 1911.58,866.788 1912,864.5C 1912.33,864.833 1912.67,865.167 1913,865.5C 1914.83,863.846 1916.66,863.012 1918.5,863C 1916.69,862.19 1915.19,861.024 1914,859.5C 1913.45,860.289 1912.79,861.289 1912,862.5C 1911.68,860.939 1910.85,859.772 1909.5,859C 1910.06,858.617 1910.39,858.117 1910.5,857.5 Z"/></g>
<g><path style="opacity:1" fill="#91520e" d="M 1232.5,876.5 C 1233.5,895.993 1233.83,915.66 1233.5,935.5C 1225.19,947.142 1216.52,958.475 1207.5,969.5C 1207.83,950.326 1207.5,931.326 1206.5,912.5C 1214.19,899.785 1222.86,887.785 1232.5,876.5 Z"/></g>
<g><path style="opacity:1" fill="#995c25" d="M 1061.5,882.5 C 1062.5,903.327 1062.83,924.327 1062.5,945.5C 1059.88,950.413 1056.55,954.746 1052.5,958.5C 1051.5,938.34 1051.17,918.007 1051.5,897.5C 1054.09,891.976 1057.43,886.976 1061.5,882.5 Z"/></g>
<g><path style="opacity:1" fill="#6c4000" d="M 1905.5,857.5 C 1907.17,857.5 1908.83,857.5 1910.5,857.5C 1910.39,858.117 1910.06,858.617 1909.5,859C 1910.85,859.772 1911.68,860.939 1912,862.5C 1912.79,861.289 1913.45,860.289 1914,859.5C 1915.19,861.024 1916.69,862.19 1918.5,863C 1916.66,863.012 1914.83,863.846 1913,865.5C 1912.67,865.167 1912.33,864.833 1912,864.5C 1911.58,866.788 1912.25,868.788 1914,870.5C 1914.41,870.043 1914.91,869.709 1915.5,869.5C 1918.08,870.883 1917.74,871.717 1914.5,872C 1917,873.784 1917,875.451 1914.5,877C 1914.93,879.296 1915.27,881.962 1915.5,885C 1914.43,886.594 1913.43,888.094 1912.5,889.5C 1913.89,889.109 1914.89,889.942 1915.5,892C 1913.63,892.953 1913.29,894.12 1914.5,895.5C 1911.21,900.786 1907.55,905.786 1903.5,910.5C 1900.9,910.279 1900.9,909.779 1903.5,909C 1898.49,908.131 1898.83,907.464 1904.5,907C 1902.11,905.691 1902.11,904.691 1904.5,904C 1902.72,902.933 1902.22,901.433 1903,899.5C 1904.74,897.958 1906.57,897.124 1908.5,897C 1907.17,896.667 1905.83,896.333 1904.5,896C 1905.55,894.284 1904.89,893.284 1902.5,893C 1903.06,891.434 1902.39,890.101 1900.5,889C 1902.42,887.066 1903.92,887.233 1905,889.5C 1905.45,887.406 1904.61,885.906 1902.5,885C 1903.21,883.657 1902.88,882.324 1901.5,881C 1906.03,881.618 1907.2,879.784 1905,875.5C 1904.67,876.833 1904.33,878.167 1904,879.5C 1903.5,878.333 1902.67,877.5 1901.5,877C 1901.95,875.388 1903.29,874.388 1905.5,874C 1903.12,873.026 1903.46,872.359 1906.5,872C 1905.17,871.333 1905.17,870.667 1906.5,870C 1905.5,869.667 1904.5,869.333 1903.5,869C 1903.83,868.667 1904.17,868.333 1904.5,868C 1901.51,866.754 1901.01,864.587 1903,861.5C 1903.67,862.167 1904.33,862.833 1905,863.5C 1905.06,861.314 1905.23,859.314 1905.5,857.5 Z"/></g>
<g><path style="opacity:1" fill="#c58e1c" d="M 1499.5,870.5 C 1497.82,872.456 1498.16,873.789 1500.5,874.5C 1478.66,888.261 1457.66,903.261 1437.5,919.5C 1437.25,917.142 1437.92,915.142 1439.5,913.5C 1457.73,896.717 1477.73,882.383 1499.5,870.5 Z"/></g>
<g><path style="opacity:1" fill="#8d5d00" d="M 1883.5,874.5 C 1884.09,875.151 1884.76,875.818 1885.5,876.5C 1885.15,877.696 1884.65,877.696 1884,876.5C 1883.69,877.766 1883.19,878.933 1882.5,880C 1883.83,880.333 1885.17,880.667 1886.5,881C 1885.55,881.483 1884.55,881.649 1883.5,881.5C 1883.66,883.199 1883.49,884.866 1883,886.5C 1878.92,888.062 1878.75,889.562 1882.5,891C 1881.37,892.753 1880.37,894.587 1879.5,896.5C 1880.26,897.719 1881.26,898.719 1882.5,899.5C 1881.28,900.096 1879.95,900.263 1878.5,900C 1879.71,901.844 1881.04,902.678 1882.5,902.5C 1881.36,903.425 1881.36,904.259 1882.5,905C 1877.17,906.333 1877.17,907.667 1882.5,909C 1881.53,910.204 1880.53,910.704 1879.5,910.5C 1880.49,911.665 1881.49,912.832 1882.5,914C 1882.2,916.024 1881.37,916.524 1880,915.5C 1879.55,917.224 1878.72,917.891 1877.5,917.5C 1879.08,920.127 1880.75,920.127 1882.5,917.5C 1883.31,917.808 1883.97,918.308 1884.5,919C 1883,919.583 1881.67,920.416 1880.5,921.5C 1882.28,922.315 1882.94,923.482 1882.5,925C 1881.5,925.333 1880.5,925.667 1879.5,926C 1881.94,927.681 1883.27,929.681 1883.5,932C 1881.1,932.508 1880.43,933.675 1881.5,935.5C 1880.27,936.281 1878.94,936.781 1877.5,937C 1879.25,937.352 1880.91,937.852 1882.5,938.5C 1879.85,942.482 1876.85,946.149 1873.5,949.5C 1872.62,949.631 1871.96,949.298 1871.5,948.5C 1872.53,948.704 1873.53,948.204 1874.5,947C 1872.01,945.777 1871.85,944.277 1874,942.5C 1874.33,943.167 1874.67,943.833 1875,944.5C 1875.49,942.866 1875.66,941.199 1875.5,939.5C 1874.45,939.649 1873.45,939.483 1872.5,939C 1872.83,938.667 1873.17,938.333 1873.5,938C 1872.17,937.333 1870.83,936.667 1869.5,936C 1870.09,934.491 1870.76,932.991 1871.5,931.5C 1871.74,932.247 1872.07,933.08 1872.5,934C 1873.17,934.667 1873.83,934.667 1874.5,934C 1874.73,931.849 1874.06,929.683 1872.5,927.5C 1874.69,925.245 1874.35,923.078 1871.5,921C 1873.29,920.804 1874.62,919.971 1875.5,918.5C 1874.74,918.089 1873.74,917.923 1872.5,918C 1873.13,917.25 1873.63,916.416 1874,915.5C 1875.07,916.28 1876.24,916.113 1877.5,915C 1874.47,914.867 1871.81,913.867 1869.5,912C 1871.25,909.666 1873.42,907.833 1876,906.5C 1876.67,905.833 1876.67,905.167 1876,904.5C 1874.95,905.517 1873.78,905.684 1872.5,905C 1873.98,903.426 1875.65,902.093 1877.5,901C 1875.87,901.43 1874.37,901.596 1873,901.5C 1870.9,900.285 1871.07,899.451 1873.5,899C 1872.98,898.439 1872.64,897.772 1872.5,897C 1874.44,895.166 1874.78,893.166 1873.5,891C 1875.5,890.076 1875.83,888.91 1874.5,887.5C 1877.12,882.886 1880.12,878.553 1883.5,874.5 Z"/></g>
<g><path style="opacity:1" fill="#a66b2d" d="M 1051.5,897.5 C 1051.17,918.007 1051.5,938.34 1052.5,958.5C 1046.88,966.788 1040.88,974.788 1034.5,982.5C 1033.5,963.007 1033.17,943.34 1033.5,923.5C 1039.01,914.476 1045.01,905.81 1051.5,897.5 Z"/></g>
<g><path style="opacity:1" fill="#b2780b" d="M 1392.5,951.5 C 1390.22,954.956 1387.72,958.29 1385,961.5C 1384.33,962.167 1384.33,962.833 1385,963.5C 1402.46,945.868 1420.62,929.202 1439.5,913.5C 1437.92,915.142 1437.25,917.142 1437.5,919.5C 1413.2,941.465 1389.53,964.132 1366.5,987.5C 1366.83,967.993 1366.5,948.659 1365.5,929.5C 1373.45,917.55 1381.79,905.883 1390.5,894.5C 1391.12,894.389 1391.62,894.056 1392,893.5C 1392.5,912.83 1392.67,932.164 1392.5,951.5 Z"/></g>
<g><path style="opacity:1" fill="#a77300" d="M 1831.5,862.5 C 1840.51,866.131 1846.01,872.798 1848,882.5C 1849.45,889.444 1849.79,896.444 1849,903.5C 1847.65,911.565 1846.32,919.565 1845,927.5C 1847.85,923.765 1850.69,920.098 1853.5,916.5C 1855.23,916.843 1855.73,917.843 1855,919.5C 1854.67,918.833 1854.33,918.167 1854,917.5C 1853.79,919.78 1852.95,921.78 1851.5,923.5C 1855.1,927.971 1854.77,931.471 1850.5,934C 1852.65,935.96 1854.32,938.294 1855.5,941C 1854.88,943.48 1853.54,943.98 1851.5,942.5C 1849.12,943.579 1848.96,944.912 1851,946.5C 1852.08,944.343 1853.25,944.176 1854.5,946C 1853.83,946.667 1853.17,947.333 1852.5,948C 1853.91,948.368 1854.91,949.201 1855.5,950.5C 1854.4,950.998 1853.4,951.331 1852.5,951.5C 1853.17,952.5 1853.83,953.5 1854.5,954.5C 1853.6,954.669 1852.6,955.002 1851.5,955.5C 1852,956.5 1852.5,957.5 1853,958.5C 1853.91,957.346 1854.75,957.513 1855.5,959C 1854.17,960 1854.17,961 1855.5,962C 1854.7,963.833 1853.7,965.666 1852.5,967.5C 1853.94,969.345 1853.6,970.511 1851.5,971C 1853.02,972.009 1854.69,972.509 1856.5,972.5C 1848.41,983.679 1840.08,994.679 1831.5,1005.5C 1830.77,1004.12 1830.1,1002.62 1829.5,1001C 1830.63,999.984 1830.3,999.317 1828.5,999C 1829.17,998.333 1829.83,997.667 1830.5,997C 1829.34,995.173 1828.01,993.507 1826.5,992C 1827.17,991.667 1827.83,991.333 1828.5,991C 1827.36,990.259 1827.36,989.425 1828.5,988.5C 1827.97,987.808 1827.31,987.308 1826.5,987C 1827.94,986.009 1828.94,984.676 1829.5,983C 1826.83,982.333 1826.83,981.667 1829.5,981C 1826.83,980.333 1826.83,979.667 1829.5,979C 1828.83,977.667 1828.17,976.333 1827.5,975C 1830.01,973.484 1830.84,971.318 1830,968.5C 1829.4,970.686 1828.23,970.852 1826.5,969C 1828.68,968.558 1829.35,967.558 1828.5,966C 1830.38,965.784 1832.05,965.117 1833.5,964C 1832.45,963.508 1831.45,963.674 1830.5,964.5C 1829.4,963.369 1829.73,962.535 1831.5,962C 1830.33,961.581 1829.33,960.915 1828.5,960C 1831,959.167 1831.17,958 1829,956.5C 1828.67,957.167 1828.33,957.833 1828,958.5C 1827.33,957.167 1826.67,957.167 1826,958.5C 1825.54,957.906 1825.37,957.239 1825.5,956.5C 1839.55,932.958 1844.72,907.625 1841,880.5C 1838.41,874.746 1834.57,870.079 1829.5,866.5C 1830.68,866.719 1831.68,866.386 1832.5,865.5C 1831.74,865.089 1830.74,864.923 1829.5,865C 1830.38,864.292 1831.05,863.458 1831.5,862.5 Z"/></g>
<g><path style="opacity:1" fill="#af7633" d="M 1033.5,923.5 C 1033.17,943.34 1033.5,963.007 1034.5,982.5C 1032.18,986.146 1029.52,989.48 1026.5,992.5C 1026.67,973.497 1026.5,954.497 1026,935.5C 1025.62,936.056 1025.12,936.389 1024.5,936.5C 1027.12,931.886 1030.12,927.553 1033.5,923.5 Z"/></g>
<g><path style="opacity:1" fill="#cd9607" d="M 1696.5,966.5 C 1684.43,981.636 1673.1,997.303 1662.5,1013.5C 1634.81,1051.19 1611.98,1091.86 1594,1135.5C 1589.42,1147.81 1587.09,1160.47 1587,1173.5C 1589.42,1185.97 1596.92,1190.8 1609.5,1188C 1620.27,1185.61 1629.94,1181.11 1638.5,1174.5C 1639.17,1174.5 1639.5,1174.17 1639.5,1173.5C 1647.65,1167.92 1655.65,1162.09 1663.5,1156C 1676.37,1143.63 1689.37,1131.46 1702.5,1119.5C 1703.46,1119.95 1704.29,1120.62 1705,1121.5C 1706.07,1120.81 1707.23,1120.31 1708.5,1120C 1707.5,1119.67 1706.5,1119.33 1705.5,1119C 1707.73,1117.77 1709.23,1115.94 1710,1113.5C 1709.65,1115.61 1709.82,1117.61 1710.5,1119.5C 1688.91,1143.94 1664.25,1164.61 1636.5,1181.5C 1629.1,1185.53 1621.43,1189.03 1613.5,1192C 1606.23,1193.51 1598.9,1193.85 1591.5,1193C 1578.82,1191.08 1569.98,1184.25 1565,1172.5C 1560.67,1157.63 1560.34,1142.63 1564,1127.5C 1569.05,1108.11 1575.71,1089.44 1584,1071.5C 1569.71,1090.12 1555.05,1108.46 1540,1126.5C 1527.9,1139.44 1515.07,1151.44 1501.5,1162.5C 1500.19,1160.36 1500.53,1158.36 1502.5,1156.5C 1515.16,1144.34 1527.66,1132.01 1540,1119.5C 1561.09,1094.41 1581.43,1068.74 1601,1042.5C 1619.51,1011.52 1639.34,981.515 1660.5,952.5C 1670.76,939.9 1681.76,927.9 1693.5,916.5C 1695.59,916.439 1697.09,915.439 1698,913.5C 1698.5,914 1699,914.5 1699.5,915C 1695.5,917.964 1695.17,920.964 1698.5,924C 1697.75,925.487 1696.91,925.654 1696,924.5C 1695.5,925.5 1695,926.5 1694.5,927.5C 1695.93,928.23 1697.1,929.23 1698,930.5C 1699.05,929.483 1700.22,929.316 1701.5,930C 1700.17,931.333 1698.83,932.667 1697.5,934C 1699.11,934.658 1700.27,934.158 1701,932.5C 1701.47,933.931 1702.3,935.097 1703.5,936C 1703,936.5 1702.5,937 1702,937.5C 1700.61,936.446 1699.11,936.28 1697.5,937C 1698.5,937.333 1699.5,937.667 1700.5,938C 1699.17,939 1697.83,940 1696.5,941C 1696.96,941.414 1697.29,941.914 1697.5,942.5C 1694.92,943.883 1695.26,944.717 1698.5,945C 1696.04,946.913 1696.38,948.579 1699.5,950C 1699.17,950.333 1698.83,950.667 1698.5,951C 1700,951.507 1701.16,951.007 1702,949.5C 1702.02,952.302 1700.52,953.636 1697.5,953.5C 1697.52,955.06 1697.85,956.56 1698.5,958C 1698.09,958.945 1697.43,959.612 1696.5,960C 1697.34,961.666 1696.84,961.833 1695,960.5C 1694.06,962.989 1694.56,964.989 1696.5,966.5 Z"/></g>
<g><path style="opacity:1" fill="#8b4c0e" d="M 1206.5,912.5 C 1207.5,931.326 1207.83,950.326 1207.5,969.5C 1197.88,983.122 1187.88,996.455 1177.5,1009.5C 1177.83,991.326 1177.5,973.326 1176.5,955.5C 1185.76,940.634 1195.76,926.301 1206.5,912.5 Z"/></g>
<g><path style="opacity:1" fill="#855500" d="M 1889.5,866.5 C 1889.94,867.231 1890.11,868.231 1890,869.5C 1890.92,869.93 1891.75,870.264 1892.5,870.5C 1891.5,871.333 1890.5,872.167 1889.5,873C 1892.95,873.293 1893.29,874.626 1890.5,877C 1891.29,879.443 1891.12,881.943 1890,884.5C 1889.67,883.167 1889.33,881.833 1889,880.5C 1889.01,882.993 1888.17,885.493 1886.5,888C 1886.67,888.5 1886.83,889 1887,889.5C 1888.52,887.165 1890.02,887.332 1891.5,890C 1889.38,891.773 1887.38,892.94 1885.5,893.5C 1885.67,893.833 1885.83,894.167 1886,894.5C 1887.33,893.833 1888.67,893.167 1890,892.5C 1889.69,893.935 1889.86,895.268 1890.5,896.5C 1889.83,896.833 1889.17,897.167 1888.5,897.5C 1889.38,898.251 1890.38,898.751 1891.5,899C 1889.96,899.29 1888.62,899.956 1887.5,901C 1888.78,901.684 1889.95,901.517 1891,900.5C 1891.64,901.646 1892.48,902.646 1893.5,903.5C 1892.1,904.842 1892.43,905.676 1894.5,906C 1893.31,908.444 1893.81,910.611 1896,912.5C 1896.42,911.044 1897.26,910.544 1898.5,911C 1897.33,913.5 1896.17,916 1895,918.5C 1894.97,915.895 1893.81,914.729 1891.5,915C 1893.89,916.309 1893.89,917.309 1891.5,918C 1892.86,918.934 1894.19,919.768 1895.5,920.5C 1891.17,926.5 1886.83,932.5 1882.5,938.5C 1880.91,937.852 1879.25,937.352 1877.5,937C 1878.94,936.781 1880.27,936.281 1881.5,935.5C 1880.43,933.675 1881.1,932.508 1883.5,932C 1883.27,929.681 1881.94,927.681 1879.5,926C 1880.5,925.667 1881.5,925.333 1882.5,925C 1882.94,923.482 1882.28,922.315 1880.5,921.5C 1881.67,920.416 1883,919.583 1884.5,919C 1883.97,918.308 1883.31,917.808 1882.5,917.5C 1880.75,920.127 1879.08,920.127 1877.5,917.5C 1878.72,917.891 1879.55,917.224 1880,915.5C 1881.37,916.524 1882.2,916.024 1882.5,914C 1881.49,912.832 1880.49,911.665 1879.5,910.5C 1880.53,910.704 1881.53,910.204 1882.5,909C 1877.17,907.667 1877.17,906.333 1882.5,905C 1881.36,904.259 1881.36,903.425 1882.5,902.5C 1881.04,902.678 1879.71,901.844 1878.5,900C 1879.95,900.263 1881.28,900.096 1882.5,899.5C 1881.26,898.719 1880.26,897.719 1879.5,896.5C 1880.37,894.587 1881.37,892.753 1882.5,891C 1878.75,889.562 1878.92,888.062 1883,886.5C 1883.49,884.866 1883.66,883.199 1883.5,881.5C 1884.55,881.649 1885.55,881.483 1886.5,881C 1885.17,880.667 1883.83,880.333 1882.5,880C 1883.19,878.933 1883.69,877.766 1884,876.5C 1884.65,877.696 1885.15,877.696 1885.5,876.5C 1884.76,875.818 1884.09,875.151 1883.5,874.5C 1885.15,871.527 1887.15,868.86 1889.5,866.5 Z"/></g>
<g><path style="opacity:1" fill="#ae7009" d="M 1365.5,929.5 C 1366.5,948.659 1366.83,967.993 1366.5,987.5C 1358.14,998.191 1349.8,1008.86 1341.5,1019.5C 1341.67,1001.16 1341.5,982.83 1341,964.5C 1340.62,965.056 1340.12,965.389 1339.5,965.5C 1347.68,953.138 1356.35,941.138 1365.5,929.5 Z"/></g>
<g><path style="opacity:1" fill="#b77f36" d="M 1026.5,992.5 C 1022.26,999.738 1017.26,1006.4 1011.5,1012.5C 1011.83,993.659 1011.5,974.993 1010.5,956.5C 1014.81,949.534 1019.48,942.867 1024.5,936.5C 1025.12,936.389 1025.62,936.056 1026,935.5C 1026.5,954.497 1026.67,973.497 1026.5,992.5 Z"/></g>
<g><path style="opacity:1" fill="#9a6700" d="M 1874.5,887.5 C 1875.83,888.91 1875.5,890.076 1873.5,891C 1874.78,893.166 1874.44,895.166 1872.5,897C 1872.64,897.772 1872.98,898.439 1873.5,899C 1871.07,899.451 1870.9,900.285 1873,901.5C 1874.37,901.596 1875.87,901.43 1877.5,901C 1875.65,902.093 1873.98,903.426 1872.5,905C 1873.78,905.684 1874.95,905.517 1876,904.5C 1876.67,905.167 1876.67,905.833 1876,906.5C 1873.42,907.833 1871.25,909.666 1869.5,912C 1871.81,913.867 1874.47,914.867 1877.5,915C 1876.24,916.113 1875.07,916.28 1874,915.5C 1873.63,916.416 1873.13,917.25 1872.5,918C 1873.74,917.923 1874.74,918.089 1875.5,918.5C 1874.62,919.971 1873.29,920.804 1871.5,921C 1874.35,923.078 1874.69,925.245 1872.5,927.5C 1874.06,929.683 1874.73,931.849 1874.5,934C 1873.83,934.667 1873.17,934.667 1872.5,934C 1872.07,933.08 1871.74,932.247 1871.5,931.5C 1870.76,932.991 1870.09,934.491 1869.5,936C 1870.83,936.667 1872.17,937.333 1873.5,938C 1873.17,938.333 1872.83,938.667 1872.5,939C 1873.45,939.483 1874.45,939.649 1875.5,939.5C 1875.66,941.199 1875.49,942.866 1875,944.5C 1874.67,943.833 1874.33,943.167 1874,942.5C 1871.85,944.277 1872.01,945.777 1874.5,947C 1873.53,948.204 1872.53,948.704 1871.5,948.5C 1871.96,949.298 1872.62,949.631 1873.5,949.5C 1868.19,957.472 1862.52,965.139 1856.5,972.5C 1854.69,972.509 1853.02,972.009 1851.5,971C 1853.6,970.511 1853.94,969.345 1852.5,967.5C 1853.7,965.666 1854.7,963.833 1855.5,962C 1854.17,961 1854.17,960 1855.5,959C 1854.75,957.513 1853.91,957.346 1853,958.5C 1852.5,957.5 1852,956.5 1851.5,955.5C 1852.6,955.002 1853.6,954.669 1854.5,954.5C 1853.83,953.5 1853.17,952.5 1852.5,951.5C 1853.4,951.331 1854.4,950.998 1855.5,950.5C 1854.91,949.201 1853.91,948.368 1852.5,948C 1853.17,947.333 1853.83,946.667 1854.5,946C 1853.25,944.176 1852.08,944.343 1851,946.5C 1848.96,944.912 1849.12,943.579 1851.5,942.5C 1853.54,943.98 1854.88,943.48 1855.5,941C 1854.32,938.294 1852.65,935.96 1850.5,934C 1854.77,931.471 1855.1,927.971 1851.5,923.5C 1852.95,921.78 1853.79,919.78 1854,917.5C 1854.33,918.167 1854.67,918.833 1855,919.5C 1855.73,917.843 1855.23,916.843 1853.5,916.5C 1860.14,906.53 1867.14,896.863 1874.5,887.5 Z"/></g>
<g><path style="opacity:1" fill="#a8a2a1" d="M 682.5,963.5 C 683.17,994.076 685.003,1024.74 688,1055.5C 695.936,1121.26 714.103,1183.93 742.5,1243.5C 669.616,1265.78 594.949,1275.44 518.5,1272.5C 515.167,1272.5 511.833,1272.5 508.5,1272.5C 480.268,1270.59 452.268,1266.92 424.5,1261.5C 419.832,1249.83 415.165,1238.16 410.5,1226.5C 421.677,1217.55 433.344,1209.05 445.5,1201C 456.023,1192.64 466.356,1184.14 476.5,1175.5C 488.447,1166.55 499.78,1156.89 510.5,1146.5C 517.464,1141.2 523.798,1135.2 529.5,1128.5C 536.464,1123.2 542.798,1117.2 548.5,1110.5C 596.091,1063.92 640.757,1014.92 682.5,963.5 Z"/></g>
<g><path style="opacity:1" fill="#a76a09" d="M 1341.5,1019.5 C 1332.97,1031.9 1323.97,1043.9 1314.5,1055.5C 1314.83,1037.33 1314.5,1019.33 1313.5,1001.5C 1321.81,989.197 1330.48,977.197 1339.5,965.5C 1340.12,965.389 1340.62,965.056 1341,964.5C 1341.5,982.83 1341.67,1001.16 1341.5,1019.5 Z"/></g>
<g><path style="opacity:1" fill="#b37d00" d="M 1825.5,956.5 C 1825.37,957.239 1825.54,957.906 1826,958.5C 1826.67,957.167 1827.33,957.167 1828,958.5C 1828.33,957.833 1828.67,957.167 1829,956.5C 1831.17,958 1831,959.167 1828.5,960C 1829.33,960.915 1830.33,961.581 1831.5,962C 1829.73,962.535 1829.4,963.369 1830.5,964.5C 1831.45,963.674 1832.45,963.508 1833.5,964C 1832.05,965.117 1830.38,965.784 1828.5,966C 1829.35,967.558 1828.68,968.558 1826.5,969C 1828.23,970.852 1829.4,970.686 1830,968.5C 1830.84,971.318 1830.01,973.484 1827.5,975C 1828.17,976.333 1828.83,977.667 1829.5,979C 1826.83,979.667 1826.83,980.333 1829.5,981C 1826.83,981.667 1826.83,982.333 1829.5,983C 1828.94,984.676 1827.94,986.009 1826.5,987C 1827.31,987.308 1827.97,987.808 1828.5,988.5C 1827.36,989.425 1827.36,990.259 1828.5,991C 1827.83,991.333 1827.17,991.667 1826.5,992C 1828.01,993.507 1829.34,995.173 1830.5,997C 1829.83,997.667 1829.17,998.333 1828.5,999C 1830.3,999.317 1830.63,999.984 1829.5,1001C 1830.1,1002.62 1830.77,1004.12 1831.5,1005.5C 1825.19,1014.48 1818.52,1023.14 1811.5,1031.5C 1811.05,1030.54 1810.38,1029.71 1809.5,1029C 1811.99,1028.37 1811.99,1027.54 1809.5,1026.5C 1809.98,1025.52 1810.64,1024.69 1811.5,1024C 1810.55,1023.38 1809.72,1023.55 1809,1024.5C 1809.46,1022.08 1809.3,1019.92 1808.5,1018C 1809.94,1017.78 1811.27,1017.28 1812.5,1016.5C 1811.17,1016.79 1809.84,1016.29 1808.5,1015C 1809.91,1014.63 1810.91,1013.8 1811.5,1012.5C 1810.41,1011.17 1809.07,1010.34 1807.5,1010C 1808.33,1009.09 1809.33,1008.42 1810.5,1008C 1809.04,1007.58 1808.54,1006.74 1809,1005.5C 1810.16,1006.99 1810.99,1006.83 1811.5,1005C 1810.43,1003.58 1810.43,1002.25 1811.5,1001C 1810.26,1001.08 1809.26,1000.91 1808.5,1000.5C 1811.8,999.858 1812.13,998.691 1809.5,997C 1810.17,995.667 1811.17,994.667 1812.5,994C 1809.21,992.965 1808.88,991.465 1811.5,989.5C 1808.97,988.483 1808.97,987.316 1811.5,986C 1808.83,985.333 1808.83,984.667 1811.5,984C 1809.96,982.89 1809.3,981.39 1809.5,979.5C 1814.6,971.621 1819.93,963.955 1825.5,956.5 Z"/></g>
<g><path style="opacity:1" fill="#85450e" d="M 1176.5,955.5 C 1177.5,973.326 1177.83,991.326 1177.5,1009.5C 1168.49,1021.54 1159.49,1033.54 1150.5,1045.5C 1150.83,1028.66 1150.5,1011.99 1149.5,995.5C 1158.02,981.784 1167.02,968.451 1176.5,955.5 Z"/></g>
<g><path style="opacity:1" fill="#c48d3e" d="M 1010.5,956.5 C 1011.5,974.993 1011.83,993.659 1011.5,1012.5C 1006.19,1020.47 1000.52,1028.14 994.5,1035.5C 994.5,1017.17 994.5,998.833 994.5,980.5C 999.34,972.148 1004.67,964.148 1010.5,956.5 Z"/></g>
<g><path style="opacity:1" fill="#c88f04" d="M 1499.5,974.5 C 1500.5,993.659 1500.83,1012.99 1500.5,1032.5C 1491.88,1044.46 1482.88,1056.12 1473.5,1067.5C 1473.83,1047.99 1473.5,1028.66 1472.5,1009.5C 1481.12,997.543 1490.12,985.876 1499.5,974.5 Z"/></g>
<g><path style="opacity:1" fill="#cd9842" d="M 994.5,980.5 C 994.5,998.833 994.5,1017.17 994.5,1035.5C 987.733,1045.38 980.733,1055.05 973.5,1064.5C 973.83,1046.99 973.497,1029.66 972.5,1012.5C 979.342,1001.48 986.676,990.811 994.5,980.5 Z"/></g>
<g><path style="opacity:1" fill="#b98300" d="M 1809.5,979.5 C 1809.3,981.39 1809.96,982.89 1811.5,984C 1808.83,984.667 1808.83,985.333 1811.5,986C 1808.97,987.316 1808.97,988.483 1811.5,989.5C 1808.88,991.465 1809.21,992.965 1812.5,994C 1811.17,994.667 1810.17,995.667 1809.5,997C 1812.13,998.691 1811.8,999.858 1808.5,1000.5C 1809.26,1000.91 1810.26,1001.08 1811.5,1001C 1810.43,1002.25 1810.43,1003.58 1811.5,1005C 1810.99,1006.83 1810.16,1006.99 1809,1005.5C 1808.54,1006.74 1809.04,1007.58 1810.5,1008C 1809.33,1008.42 1808.33,1009.09 1807.5,1010C 1809.07,1010.34 1810.41,1011.17 1811.5,1012.5C 1810.91,1013.8 1809.91,1014.63 1808.5,1015C 1809.84,1016.29 1811.17,1016.79 1812.5,1016.5C 1811.27,1017.28 1809.94,1017.78 1808.5,1018C 1809.3,1019.92 1809.46,1022.08 1809,1024.5C 1809.72,1023.55 1810.55,1023.38 1811.5,1024C 1810.64,1024.69 1809.98,1025.52 1809.5,1026.5C 1811.99,1027.54 1811.99,1028.37 1809.5,1029C 1810.38,1029.71 1811.05,1030.54 1811.5,1031.5C 1806.07,1039.38 1800.4,1047.05 1794.5,1054.5C 1793.89,1052.19 1792.89,1049.69 1791.5,1047C 1791.91,1046.05 1792.57,1045.39 1793.5,1045C 1793.02,1043.99 1792.85,1042.82 1793,1041.5C 1791.04,1041.06 1788.87,1040.23 1786.5,1039C 1788.2,1037.6 1788.7,1035.76 1788,1033.5C 1788.33,1034.17 1788.67,1034.83 1789,1035.5C 1790.74,1034.28 1791.74,1032.62 1792,1030.5C 1792.89,1031.71 1793.73,1031.71 1794.5,1030.5C 1793.29,1029.28 1793.29,1028.11 1794.5,1027C 1793.95,1024.63 1792.95,1022.47 1791.5,1020.5C 1792.38,1019.75 1793.38,1019.25 1794.5,1019C 1793.6,1016.94 1791.6,1015.44 1788.5,1014.5C 1789.91,1014.35 1791.58,1014.18 1793.5,1014C 1790.02,1011.5 1790.02,1009.34 1793.5,1007.5C 1793.14,1006.48 1792.48,1005.81 1791.5,1005.5C 1797.51,996.796 1803.51,988.129 1809.5,979.5 Z"/></g>
<g><path style="opacity:1" fill="#a16409" d="M 1313.5,1001.5 C 1314.5,1019.33 1314.83,1037.33 1314.5,1055.5C 1305.31,1068.57 1295.64,1081.23 1285.5,1093.5C 1284.5,1076.67 1284.17,1059.67 1284.5,1042.5C 1293.79,1028.55 1303.45,1014.88 1313.5,1001.5 Z"/></g>
<g><path style="opacity:1" fill="#7f3f0f" d="M 1149.5,995.5 C 1150.5,1011.99 1150.83,1028.66 1150.5,1045.5C 1142.13,1057.52 1133.8,1069.52 1125.5,1081.5C 1125.83,1064.99 1125.5,1048.66 1124.5,1032.5C 1132.47,1019.87 1140.81,1007.54 1149.5,995.5 Z"/></g>
<g><path style="opacity:1" fill="#dad9d9" d="M 1662.5,1013.5 C 1661.18,1067.76 1653.51,1121.09 1639.5,1173.5C 1638.83,1173.5 1638.5,1173.83 1638.5,1174.5C 1629.94,1181.11 1620.27,1185.61 1609.5,1188C 1596.92,1190.8 1589.42,1185.97 1587,1173.5C 1587.09,1160.47 1589.42,1147.81 1594,1135.5C 1611.98,1091.86 1634.81,1051.19 1662.5,1013.5 Z"/></g>
<g><path style="opacity:1" fill="#bf8800" d="M 1791.5,1005.5 C 1792.48,1005.81 1793.14,1006.48 1793.5,1007.5C 1790.02,1009.34 1790.02,1011.5 1793.5,1014C 1791.58,1014.18 1789.91,1014.35 1788.5,1014.5C 1791.6,1015.44 1793.6,1016.94 1794.5,1019C 1793.38,1019.25 1792.38,1019.75 1791.5,1020.5C 1792.95,1022.47 1793.95,1024.63 1794.5,1027C 1793.29,1028.11 1793.29,1029.28 1794.5,1030.5C 1793.73,1031.71 1792.89,1031.71 1792,1030.5C 1791.74,1032.62 1790.74,1034.28 1789,1035.5C 1788.67,1034.83 1788.33,1034.17 1788,1033.5C 1788.7,1035.76 1788.2,1037.6 1786.5,1039C 1788.87,1040.23 1791.04,1041.06 1793,1041.5C 1792.85,1042.82 1793.02,1043.99 1793.5,1045C 1792.57,1045.39 1791.91,1046.05 1791.5,1047C 1792.89,1049.69 1793.89,1052.19 1794.5,1054.5C 1783.74,1070.59 1773.4,1086.92 1763.5,1103.5C 1761.09,1103.14 1759.59,1104.14 1759,1106.5C 1758.69,1105.23 1758.19,1104.07 1757.5,1103C 1757.83,1102.67 1758.17,1102.33 1758.5,1102C 1757.69,1101.69 1757.03,1101.19 1756.5,1100.5C 1757.6,1098.61 1758.93,1097.94 1760.5,1098.5C 1759.76,1096.65 1758.76,1095.98 1757.5,1096.5C 1758.85,1095.32 1758.69,1094.32 1757,1093.5C 1756.33,1092.17 1756.33,1090.83 1757,1089.5C 1758.54,1092.96 1761.04,1092.8 1764.5,1089C 1763.83,1088.67 1763.17,1088.33 1762.5,1088C 1763.96,1087.58 1764.46,1086.74 1764,1085.5C 1761.96,1086.58 1760.62,1088.25 1760,1090.5C 1759.5,1088.19 1759.34,1085.86 1759.5,1083.5C 1761.23,1083.81 1762.89,1083.98 1764.5,1084C 1764.01,1081.97 1764.01,1079.81 1764.5,1077.5C 1762.8,1077.03 1761.3,1077.03 1760,1077.5C 1759.33,1075.83 1759.33,1074.17 1760,1072.5C 1760.33,1072.83 1760.67,1073.17 1761,1073.5C 1762.06,1071.79 1763.23,1071.13 1764.5,1071.5C 1762.75,1069.03 1761.92,1066.36 1762,1063.5C 1762.33,1064.17 1762.67,1064.83 1763,1065.5C 1764.63,1062.58 1764.8,1059.58 1763.5,1056.5C 1761.9,1057.03 1761.4,1058.03 1762,1059.5C 1762.65,1058.3 1763.15,1058.3 1763.5,1059.5C 1761.56,1061.04 1760.4,1063.04 1760,1065.5C 1759.31,1061.18 1758.81,1057.18 1758.5,1053.5C 1769.5,1037.5 1780.5,1021.5 1791.5,1005.5 Z"/></g>
<g><path style="opacity:1" fill="#c38904" d="M 1472.5,1009.5 C 1473.5,1028.66 1473.83,1047.99 1473.5,1067.5C 1465.85,1078.47 1457.85,1089.14 1449.5,1099.5C 1449.5,1079.5 1449.5,1059.5 1449.5,1039.5C 1456.41,1028.92 1464.07,1018.92 1472.5,1009.5 Z"/></g>
<g><path style="opacity:1" fill="#d8a64a" d="M 972.5,1012.5 C 973.497,1029.66 973.83,1046.99 973.5,1064.5C 965.8,1075.86 958.134,1087.19 950.5,1098.5C 950.83,1080.66 950.497,1062.99 949.5,1045.5C 956.81,1034.2 964.476,1023.2 972.5,1012.5 Z"/></g>
<g><path style="opacity:1" fill="#7d3913" d="M 1124.5,1032.5 C 1125.5,1048.66 1125.83,1064.99 1125.5,1081.5C 1118.91,1093.01 1112.58,1104.68 1106.5,1116.5C 1105.5,1097.67 1105.17,1078.67 1105.5,1059.5C 1112.09,1050.64 1118.43,1041.64 1124.5,1032.5 Z"/></g>
<g><path style="opacity:1" fill="#9c5d09" d="M 1284.5,1042.5 C 1284.17,1059.67 1284.5,1076.67 1285.5,1093.5C 1277.26,1106.07 1268.26,1118.07 1258.5,1129.5C 1258.5,1111.83 1258.5,1094.17 1258.5,1076.5C 1266.68,1064.8 1275.35,1053.46 1284.5,1042.5 Z"/></g>
<g><path style="opacity:1" fill="#e1af4c" d="M 949.5,1045.5 C 950.497,1062.99 950.83,1080.66 950.5,1098.5C 944.561,1108.71 938.895,1119.05 933.5,1129.5C 933.83,1110.33 933.497,1091.33 932.5,1072.5C 937.42,1062.99 943.086,1053.99 949.5,1045.5 Z"/></g>
<g><path style="opacity:1" fill="#c78e00" d="M 1758.5,1053.5 C 1758.81,1057.18 1759.31,1061.18 1760,1065.5C 1760.4,1063.04 1761.56,1061.04 1763.5,1059.5C 1763.15,1058.3 1762.65,1058.3 1762,1059.5C 1761.4,1058.03 1761.9,1057.03 1763.5,1056.5C 1764.8,1059.58 1764.63,1062.58 1763,1065.5C 1762.67,1064.83 1762.33,1064.17 1762,1063.5C 1761.92,1066.36 1762.75,1069.03 1764.5,1071.5C 1763.23,1071.13 1762.06,1071.79 1761,1073.5C 1760.67,1073.17 1760.33,1072.83 1760,1072.5C 1759.33,1074.17 1759.33,1075.83 1760,1077.5C 1761.3,1077.03 1762.8,1077.03 1764.5,1077.5C 1764.01,1079.81 1764.01,1081.97 1764.5,1084C 1762.89,1083.98 1761.23,1083.81 1759.5,1083.5C 1759.34,1085.86 1759.5,1088.19 1760,1090.5C 1760.62,1088.25 1761.96,1086.58 1764,1085.5C 1764.46,1086.74 1763.96,1087.58 1762.5,1088C 1763.17,1088.33 1763.83,1088.67 1764.5,1089C 1761.04,1092.8 1758.54,1092.96 1757,1089.5C 1756.33,1090.83 1756.33,1092.17 1757,1093.5C 1758.69,1094.32 1758.85,1095.32 1757.5,1096.5C 1758.76,1095.98 1759.76,1096.65 1760.5,1098.5C 1758.93,1097.94 1757.6,1098.61 1756.5,1100.5C 1757.03,1101.19 1757.69,1101.69 1758.5,1102C 1758.17,1102.33 1757.83,1102.67 1757.5,1103C 1758.19,1104.07 1758.69,1105.23 1759,1106.5C 1759.59,1104.14 1761.09,1103.14 1763.5,1103.5C 1753.64,1122.09 1746.97,1141.76 1743.5,1162.5C 1744.96,1180.09 1754.62,1188.76 1772.5,1188.5C 1785.56,1187.48 1797.56,1183.48 1808.5,1176.5C 1808.28,1177.73 1807.61,1178.73 1806.5,1179.5C 1806.94,1180.51 1807.6,1180.51 1808.5,1179.5C 1809.3,1179.96 1809.63,1180.62 1809.5,1181.5C 1786.82,1195.34 1763.15,1197.17 1738.5,1187C 1725.09,1178.86 1718.76,1166.86 1719.5,1151C 1720.71,1131 1726.04,1112.17 1735.5,1094.5C 1735.33,1094.17 1735.17,1093.83 1735,1093.5C 1727.05,1102.43 1718.88,1111.1 1710.5,1119.5C 1709.82,1117.61 1709.65,1115.61 1710,1113.5C 1709.23,1115.94 1707.73,1117.77 1705.5,1119C 1706.5,1119.33 1707.5,1119.67 1708.5,1120C 1707.23,1120.31 1706.07,1120.81 1705,1121.5C 1704.29,1120.62 1703.46,1119.95 1702.5,1119.5C 1721.55,1097.79 1740.22,1075.79 1758.5,1053.5 Z"/></g>
<g><path style="opacity:1" fill="#bd8304" d="M 1449.5,1039.5 C 1449.5,1059.5 1449.5,1079.5 1449.5,1099.5C 1439.99,1112.52 1430.99,1125.86 1422.5,1139.5C 1422.83,1118.66 1422.5,1097.99 1421.5,1077.5C 1429.86,1064.11 1439.19,1051.45 1449.5,1039.5 Z"/></g>
<g><path style="opacity:1" fill="#562c00" d="M 1921.5,1064.5 C 1920.73,1063.31 1919.73,1062.31 1918.5,1061.5C 1922.81,1055.52 1927.14,1049.52 1931.5,1043.5C 1933.83,1042.17 1936.17,1042.17 1938.5,1043.5C 1933.16,1050.83 1927.49,1057.83 1921.5,1064.5 Z"/></g>
<g><path style="opacity:1" fill="#f9c753" d="M 548.5,1053.5 C 547.406,1072.48 547.406,1091.48 548.5,1110.5C 542.798,1117.2 536.464,1123.2 529.5,1128.5C 528.809,1124.1 528.142,1119.6 527.5,1115C 528.324,1102.74 528.657,1090.24 528.5,1077.5C 534.82,1069.18 541.486,1061.18 548.5,1053.5 Z"/></g>
<g><path style="opacity:1" fill="#793715" d="M 1105.5,1059.5 C 1105.17,1078.67 1105.5,1097.67 1106.5,1116.5C 1101.15,1128.04 1096.98,1140.04 1094,1152.5C 1093.33,1157.83 1093.33,1163.17 1094,1168.5C 1096.73,1180.6 1104.23,1187.27 1116.5,1188.5C 1119.29,1189.48 1122.29,1189.81 1125.5,1189.5C 1125.5,1190.5 1125.5,1191.5 1125.5,1192.5C 1122.17,1192.5 1118.83,1192.5 1115.5,1192.5C 1099.87,1192.97 1087.2,1187.31 1077.5,1175.5C 1077.5,1155.83 1077.5,1136.17 1077.5,1116.5C 1081.42,1103.82 1087.09,1091.99 1094.5,1081C 1093.83,1080.33 1093.17,1080.33 1092.5,1081C 1090.84,1083.84 1088.84,1086.34 1086.5,1088.5C 1085.83,1087.83 1085.17,1087.17 1084.5,1086.5C 1091.27,1077.28 1098.27,1068.28 1105.5,1059.5 Z"/></g>
<g><path style="opacity:1" fill="#e5b653" d="M 932.5,1072.5 C 933.497,1091.33 933.83,1110.33 933.5,1129.5C 929.975,1137.91 927.142,1146.58 925,1155.5C 924.333,1160.5 924.333,1165.5 925,1170.5C 926.326,1177.32 930.16,1182.15 936.5,1185C 948.327,1189.15 960.327,1189.65 972.5,1186.5C 973.097,1186.74 973.43,1187.24 973.5,1188C 972.944,1189.01 972.278,1189.84 971.5,1190.5C 961.014,1193.9 950.347,1194.4 939.5,1192C 916.294,1187.96 904.294,1174.12 903.5,1150.5C 906.864,1122.07 916.531,1096.07 932.5,1072.5 Z"/></g>
<g><path style="opacity:1" fill="#f2c74d" d="M 528.5,1077.5 C 528.657,1090.24 528.324,1102.74 527.5,1115C 528.142,1119.6 528.809,1124.1 529.5,1128.5C 523.798,1135.2 517.464,1141.2 510.5,1146.5C 509.448,1146.65 508.448,1146.48 507.5,1146C 507.906,1131.1 508.24,1115.93 508.5,1100.5C 514.469,1092.23 521.135,1084.57 528.5,1077.5 Z"/></g>
<g><path style="opacity:1" fill="#724500" d="M 1918.5,1061.5 C 1919.73,1062.31 1920.73,1063.31 1921.5,1064.5C 1913.32,1076.2 1904.65,1087.54 1895.5,1098.5C 1895.22,1097.71 1894.72,1097.04 1894,1096.5C 1893.23,1097.6 1892.4,1097.6 1891.5,1096.5C 1900.27,1084.61 1909.27,1072.95 1918.5,1061.5 Z"/></g>
<g><path style="opacity:1" fill="#96580d" d="M 1258.5,1076.5 C 1258.5,1094.17 1258.5,1111.83 1258.5,1129.5C 1250.52,1140.81 1242.19,1151.81 1233.5,1162.5C 1233.5,1146.5 1233.5,1130.5 1233.5,1114.5C 1234.05,1112.61 1235.05,1110.94 1236.5,1109.5C 1235.64,1108.71 1234.81,1109.04 1234,1110.5C 1233.72,1109.58 1233.22,1108.92 1232.5,1108.5C 1240.82,1097.52 1249.48,1086.85 1258.5,1076.5 Z"/></g>
<g><path style="opacity:1" fill="#b77d05" d="M 1421.5,1077.5 C 1422.5,1097.99 1422.83,1118.66 1422.5,1139.5C 1419.69,1145.11 1416.86,1150.78 1414,1156.5C 1412.31,1161.39 1411.15,1166.39 1410.5,1171.5C 1410.57,1180.9 1415.23,1186.23 1424.5,1187.5C 1428.63,1188.48 1432.97,1188.82 1437.5,1188.5C 1437.5,1189.5 1437.5,1190.5 1437.5,1191.5C 1431.17,1191.5 1424.83,1191.5 1418.5,1191.5C 1390.21,1189.73 1378.71,1175.06 1384,1147.5C 1392.63,1121.89 1405.13,1098.55 1421.5,1077.5 Z"/></g>
<g><path style="opacity:1" fill="#f0c047" d="M 508.5,1100.5 C 508.24,1115.93 507.906,1131.1 507.5,1146C 508.448,1146.48 509.448,1146.65 510.5,1146.5C 499.78,1156.89 488.447,1166.55 476.5,1175.5C 475.414,1175.38 474.747,1174.71 474.5,1173.5C 474.439,1163.69 474.772,1153.69 475.5,1143.5C 475.006,1141.97 474.339,1140.64 473.5,1139.5C 484.942,1126.27 496.609,1113.27 508.5,1100.5 Z"/></g>
<g><path style="opacity:1" fill="#884a21" d="M 1077.5,1116.5 C 1077.5,1136.17 1077.5,1155.83 1077.5,1175.5C 1075.17,1172.17 1073.34,1168.51 1072,1164.5C 1068.95,1147.85 1070.78,1131.85 1077.5,1116.5 Z"/></g>
<g><path style="opacity:1" fill="#8e5e00" d="M 1891.5,1096.5 C 1892.4,1097.6 1893.23,1097.6 1894,1096.5C 1894.72,1097.04 1895.22,1097.71 1895.5,1098.5C 1885.89,1111.11 1875.55,1123.11 1864.5,1134.5C 1861.4,1134.59 1861.07,1134.09 1863.5,1133C 1862.75,1132.33 1862.41,1131.5 1862.5,1130.5C 1872.2,1119.14 1881.86,1107.81 1891.5,1096.5 Z"/></g>
<g><path style="opacity:1" fill="#905010" d="M 1233.5,1114.5 C 1233.5,1130.5 1233.5,1146.5 1233.5,1162.5C 1226.94,1172.41 1219.94,1182.08 1212.5,1191.5C 1200.23,1193.38 1187.9,1193.88 1175.5,1193C 1194,1167.01 1212.66,1141.18 1231.5,1115.5C 1232.17,1115.17 1232.83,1114.83 1233.5,1114.5 Z"/></g>
<g><path style="opacity:1" fill="#996034" d="M 1084.5,1086.5 C 1085.17,1087.17 1085.83,1087.83 1086.5,1088.5C 1074.25,1105.66 1060.58,1121.66 1045.5,1136.5C 1045.74,1135.21 1045.4,1134.21 1044.5,1133.5C 1058.55,1118.35 1071.89,1102.68 1084.5,1086.5 Z"/></g>
<g><path style="opacity:1" fill="#935823" d="M 1232.5,1108.5 C 1233.22,1108.92 1233.72,1109.58 1234,1110.5C 1234.81,1109.04 1235.64,1108.71 1236.5,1109.5C 1235.05,1110.94 1234.05,1112.61 1233.5,1114.5C 1232.83,1114.83 1232.17,1115.17 1231.5,1115.5C 1214.87,1134.46 1196.87,1152.12 1177.5,1168.5C 1177.74,1167.21 1177.4,1166.21 1176.5,1165.5C 1196.73,1148.06 1215.39,1129.06 1232.5,1108.5 Z"/></g>
<g><path style="opacity:1" fill="#eab83a" d="M 473.5,1139.5 C 474.339,1140.64 475.006,1141.97 475.5,1143.5C 474.772,1153.69 474.439,1163.69 474.5,1173.5C 474.747,1174.71 475.414,1175.38 476.5,1175.5C 466.356,1184.14 456.023,1192.64 445.5,1201C 433.344,1209.05 421.677,1217.55 410.5,1226.5C 409.391,1226.56 408.391,1226.89 407.5,1227.5C 408.062,1221.36 408.062,1215.36 407.5,1209.5C 429.866,1186.47 451.866,1163.14 473.5,1139.5 Z"/></g>
<g><path style="opacity:1" fill="#b68243" d="M 1044.5,1133.5 C 1045.4,1134.21 1045.74,1135.21 1045.5,1136.5C 1035.1,1148.24 1023.77,1158.9 1011.5,1168.5C 1011.74,1167.21 1011.4,1166.21 1010.5,1165.5C 1022.77,1155.9 1034.1,1145.24 1044.5,1133.5 Z"/></g>
<g><path style="opacity:1" fill="#c79022" d="M 1502.5,1156.5 C 1500.53,1158.36 1500.19,1160.36 1501.5,1162.5C 1477.86,1183.94 1450.19,1193.6 1418.5,1191.5C 1424.83,1191.5 1431.17,1191.5 1437.5,1191.5C 1437.5,1190.5 1437.5,1189.5 1437.5,1188.5C 1432.97,1188.82 1428.63,1188.48 1424.5,1187.5C 1436.95,1188.58 1448.95,1186.74 1460.5,1182C 1475.69,1175.25 1489.69,1166.75 1502.5,1156.5 Z"/></g>
<g><path style="opacity:1" fill="#ad7800" d="M 1862.5,1130.5 C 1862.41,1131.5 1862.75,1132.33 1863.5,1133C 1861.07,1134.09 1861.4,1134.59 1864.5,1134.5C 1848.25,1152.76 1829.92,1168.43 1809.5,1181.5C 1809.63,1180.62 1809.3,1179.96 1808.5,1179.5C 1807.6,1180.51 1806.94,1180.51 1806.5,1179.5C 1807.61,1178.73 1808.28,1177.73 1808.5,1176.5C 1828.61,1163.73 1846.61,1148.4 1862.5,1130.5 Z"/></g>
<g><path style="opacity:1" fill="#8b5127" d="M 1176.5,1165.5 C 1177.4,1166.21 1177.74,1167.21 1177.5,1168.5C 1167.03,1176.58 1155.69,1183.41 1143.5,1189C 1134.3,1192.71 1124.97,1193.87 1115.5,1192.5C 1118.83,1192.5 1122.17,1192.5 1125.5,1192.5C 1125.5,1191.5 1125.5,1190.5 1125.5,1189.5C 1122.29,1189.81 1119.29,1189.48 1116.5,1188.5C 1125.34,1188.59 1134,1187.43 1142.5,1185C 1154.73,1179.9 1166.07,1173.4 1176.5,1165.5 Z"/></g>
<g><path style="opacity:1" fill="#bf6d00" d="M 134.5,1176.5 C 135.403,1181.21 135.403,1185.88 134.5,1190.5C 121.791,1189.09 109.124,1189.43 96.5,1191.5C 96.0033,1189.4 95.67,1187.57 95.5,1186C 96.5,1185 97.5,1184 98.5,1183C 97.5,1182.67 96.5,1182.33 95.5,1182C 96.8333,1181.33 96.8333,1180.67 95.5,1180C 96.1667,1179.67 96.8333,1179.33 97.5,1179C 96.6634,1177.99 96.33,1176.82 96.5,1175.5C 109.229,1174 121.895,1174.34 134.5,1176.5 Z"/></g>
<g><path style="opacity:1" fill="#c57c00" d="M 134.5,1176.5 C 155.408,1179.15 175.741,1183.81 195.5,1190.5C 195.577,1191.75 196.244,1192.58 197.5,1193C 197.072,1195.59 196.405,1198.43 195.5,1201.5C 175.382,1196.65 155.048,1192.98 134.5,1190.5C 135.403,1185.88 135.403,1181.21 134.5,1176.5 Z"/></g>
<g><path style="opacity:1" fill="#ba6000" d="M 96.5,1175.5 C 96.33,1176.82 96.6634,1177.99 97.5,1179C 96.8333,1179.33 96.1667,1179.67 95.5,1180C 96.8333,1180.67 96.8333,1181.33 95.5,1182C 96.5,1182.33 97.5,1182.67 98.5,1183C 97.5,1184 96.5,1185 95.5,1186C 95.67,1187.57 96.0033,1189.4 96.5,1191.5C 86.7583,1193.95 78.2583,1198.62 71,1205.5C 64.9132,1215.01 65.2465,1224.34 72,1233.5C 78.3489,1242.08 86.1823,1248.92 95.5,1254C 102.592,1257.55 109.592,1261.05 116.5,1264.5C 116.833,1266.5 117.167,1268.5 117.5,1270.5C 94.7285,1263.87 76.2285,1251.2 62,1232.5C 50.2482,1209.09 56.0816,1191.59 79.5,1180C 84.992,1177.78 90.6587,1176.28 96.5,1175.5 Z"/></g>
<g><path style="opacity:1" fill="#cc9b4f" d="M 1010.5,1165.5 C 1011.4,1166.21 1011.74,1167.21 1011.5,1168.5C 999.671,1178.42 986.338,1185.75 971.5,1190.5C 972.278,1189.84 972.944,1189.01 973.5,1188C 973.43,1187.24 973.097,1186.74 972.5,1186.5C 986.312,1181.59 998.979,1174.59 1010.5,1165.5 Z"/></g>
<g><path style="opacity:1" fill="#cc9200" d="M 195.5,1190.5 C 220.057,1197.13 244.057,1205.13 267.5,1214.5C 267.5,1217.17 267.5,1219.83 267.5,1222.5C 243.736,1214.69 219.736,1207.69 195.5,1201.5C 196.405,1198.43 197.072,1195.59 197.5,1193C 196.244,1192.58 195.577,1191.75 195.5,1190.5 Z"/></g>
<g><path style="opacity:1" fill="#f7cc61" d="M 745.5,1251.5 C 689.8,1271.21 632.466,1283.04 573.5,1287C 558.328,1287.83 543.328,1287.66 528.5,1286.5C 539.5,1286.5 550.5,1286.5 561.5,1286.5C 561.5,1282.17 561.5,1277.83 561.5,1273.5C 546.99,1273.83 532.657,1273.5 518.5,1272.5C 594.949,1275.44 669.616,1265.78 742.5,1243.5C 781.395,1232.15 818.729,1216.98 854.5,1198C 856.661,1197.28 858.328,1197.95 859.5,1200C 822.776,1220.2 784.776,1237.37 745.5,1251.5 Z"/></g>
<g><path style="opacity:1" fill="#e1af27" d="M 407.5,1209.5 C 408.062,1215.36 408.062,1221.36 407.5,1227.5C 396.232,1235.14 384.565,1242.31 372.5,1249C 384.005,1252.56 395.672,1255.39 407.5,1257.5C 407.5,1259.83 407.5,1262.17 407.5,1264.5C 394.167,1260.83 380.833,1257.17 367.5,1253.5C 367.568,1249.13 367.568,1245.13 367.5,1241.5C 380.711,1232.3 393.044,1221.96 404.5,1210.5C 405.609,1210.44 406.609,1210.11 407.5,1209.5 Z"/></g>
<g><path style="opacity:1" fill="#d8a213" d="M 267.5,1214.5 C 296.624,1224.82 325.958,1234.65 355.5,1244C 357.5,1244.67 359.5,1244.67 361.5,1244C 363.407,1242.88 365.407,1242.04 367.5,1241.5C 367.568,1245.13 367.568,1249.13 367.5,1253.5C 366.504,1253.59 365.671,1253.25 365,1252.5C 324.662,1274.54 281.495,1286.21 235.5,1287.5C 235.07,1285.38 235.07,1283.38 235.5,1281.5C 266.155,1281 295.488,1274.5 323.5,1262C 332.622,1257.94 341.622,1253.61 350.5,1249C 322.919,1239.86 295.252,1231.03 267.5,1222.5C 267.5,1219.83 267.5,1217.17 267.5,1214.5 Z"/></g>
<g><path style="opacity:1" fill="#a7a1a1" d="M 745.5,1251.5 C 775.011,1311.65 812.678,1365.98 858.5,1414.5C 858.171,1429.01 858.504,1443.34 859.5,1457.5C 875.833,1457.5 892.167,1457.5 908.5,1457.5C 908.833,1457.5 909.167,1457.5 909.5,1457.5C 907.708,1458.31 905.708,1458.81 903.5,1459C 989.883,1535.37 1089.22,1588.54 1201.5,1618.5C 1142.71,1636.89 1082.37,1645.89 1020.5,1645.5C 933.589,1641.72 849.256,1624.55 767.5,1594C 752.201,1587.19 736.868,1580.69 721.5,1574.5C 661.788,1544.64 608.455,1505.98 561.5,1458.5C 594.733,1458.7 608.899,1442.37 604,1409.5C 593.23,1389.04 576.73,1382.2 554.5,1389C 538.495,1396.84 531.162,1409.67 532.5,1427.5C 521.067,1416.07 510.734,1403.74 501.5,1390.5C 501.414,1389.5 501.748,1388.67 502.5,1388C 501.207,1387.51 499.873,1387.34 498.5,1387.5C 471.123,1350.78 447.79,1311.44 428.5,1269.5C 458.397,1277.32 488.731,1282.65 519.5,1285.5C 522.391,1286.4 525.391,1286.74 528.5,1286.5C 543.328,1287.66 558.328,1287.83 573.5,1287C 632.466,1283.04 689.8,1271.21 745.5,1251.5 Z"/></g>
<g><path style="opacity:1" fill="#c17400" d="M 116.5,1264.5 C 129.288,1268.65 142.288,1271.98 155.5,1274.5C 156.523,1276.58 156.19,1278.58 154.5,1280.5C 141.85,1278.25 129.517,1274.92 117.5,1270.5C 117.167,1268.5 116.833,1266.5 116.5,1264.5 Z"/></g>
<g><path style="opacity:1" fill="#ebbc45" d="M 407.5,1257.5 C 413.087,1259.08 418.753,1260.42 424.5,1261.5C 452.268,1266.92 480.268,1270.59 508.5,1272.5C 508.502,1274.57 508.169,1276.74 507.5,1279C 508.227,1280.4 508.727,1281.9 509,1283.5C 512.603,1284.14 516.103,1284.8 519.5,1285.5C 488.731,1282.65 458.397,1277.32 428.5,1269.5C 421.383,1268.3 414.383,1266.64 407.5,1264.5C 407.5,1262.17 407.5,1259.83 407.5,1257.5 Z"/></g>
<g><path style="opacity:1" fill="#f8c952" d="M 508.5,1272.5 C 511.833,1272.5 515.167,1272.5 518.5,1272.5C 532.657,1273.5 546.99,1273.83 561.5,1273.5C 561.5,1277.83 561.5,1282.17 561.5,1286.5C 550.5,1286.5 539.5,1286.5 528.5,1286.5C 525.391,1286.74 522.391,1286.4 519.5,1285.5C 516.103,1284.8 512.603,1284.14 509,1283.5C 508.727,1281.9 508.227,1280.4 507.5,1279C 508.169,1276.74 508.502,1274.57 508.5,1272.5 Z"/></g>
<g><path style="opacity:1" fill="#c67e00" d="M 155.5,1274.5 C 168.674,1277.31 182.007,1279.31 195.5,1280.5C 195.343,1281.87 195.51,1283.21 196,1284.5C 197.107,1283.29 197.607,1283.62 197.5,1285.5C 183.015,1285.06 168.682,1283.4 154.5,1280.5C 156.19,1278.58 156.523,1276.58 155.5,1274.5 Z"/></g>
<g><path style="opacity:1" fill="#cb8d00" d="M 195.5,1280.5 C 208.819,1281.28 222.152,1281.61 235.5,1281.5C 235.07,1283.38 235.07,1285.38 235.5,1287.5C 222.645,1287.49 209.978,1286.82 197.5,1285.5C 197.607,1283.62 197.107,1283.29 196,1284.5C 195.51,1283.21 195.343,1281.87 195.5,1280.5 Z"/></g>
<g><path style="opacity:1" fill="#030303" d="M 561.5,1458.5 C 544.546,1454.88 534.879,1444.55 532.5,1427.5C 531.162,1409.67 538.495,1396.84 554.5,1389C 576.73,1382.2 593.23,1389.04 604,1409.5C 608.899,1442.37 594.733,1458.7 561.5,1458.5 Z"/></g>
<g><path style="opacity:1" fill="#030303" d="M 660.5,1386.5 C 672.257,1385.11 682.924,1387.77 692.5,1394.5C 690.564,1397.38 688.398,1400.05 686,1402.5C 678.164,1397.08 669.664,1395.58 660.5,1398C 654.674,1401.81 654.008,1406.48 658.5,1412C 667.822,1415.33 677.156,1418.66 686.5,1422C 695.403,1429.9 696.903,1439.07 691,1449.5C 686.931,1454.29 681.764,1457.12 675.5,1458C 662.124,1460.1 650.791,1456.43 641.5,1447C 643.653,1444.18 645.819,1441.34 648,1438.5C 657.156,1447.42 667.656,1449.58 679.5,1445C 683.325,1440.76 683.325,1436.59 679.5,1432.5C 670.262,1428.71 660.929,1425.21 651.5,1422C 645.791,1418.08 643.124,1412.58 643.5,1405.5C 644.594,1395.07 650.26,1388.74 660.5,1386.5 Z"/></g>
<g><path style="opacity:1" fill="#050505" d="M 1056.5,1386.5 C 1078.97,1383.64 1094.14,1392.64 1102,1413.5C 1105.12,1433.44 1097.62,1447.61 1079.5,1456C 1055,1462.67 1038.5,1454.17 1030,1430.5C 1027.1,1408.6 1035.94,1393.93 1056.5,1386.5 Z"/></g>
<g><path style="opacity:1" fill="#050505" d="M 1246.5,1386.5 C 1267.9,1383.61 1282.73,1391.94 1291,1411.5C 1295.39,1435.56 1285.89,1451.06 1262.5,1458C 1236.67,1460 1222,1448.17 1218.5,1422.5C 1220.04,1404.31 1229.37,1392.31 1246.5,1386.5 Z"/></g>
<g><path style="opacity:1" fill="#040404" d="M 1381.5,1424.5 C 1385.17,1424.5 1388.83,1424.5 1392.5,1424.5C 1392.5,1432.17 1392.5,1439.83 1392.5,1447.5C 1387.42,1453.04 1381.09,1456.54 1373.5,1458C 1346.36,1460.95 1331.36,1448.95 1328.5,1422C 1331.63,1396.08 1346.29,1384.41 1372.5,1387C 1379.03,1387.95 1384.7,1390.61 1389.5,1395C 1387.62,1397.92 1385.62,1400.75 1383.5,1403.5C 1368.87,1394.17 1355.7,1395.84 1344,1408.5C 1337.32,1422.43 1339.82,1434.26 1351.5,1444C 1361.2,1448.67 1370.87,1448.5 1380.5,1443.5C 1381.5,1437.2 1381.83,1430.87 1381.5,1424.5 Z"/></g>
<g><path style="opacity:1" fill="#000000" d="M 498.5,1387.5 C 499.873,1387.34 501.207,1387.51 502.5,1388C 501.748,1388.67 501.414,1389.5 501.5,1390.5C 492.33,1399.5 483.664,1409 475.5,1419C 485.2,1431.57 494.534,1444.4 503.5,1457.5C 498.533,1458.66 493.533,1458.83 488.5,1458C 481.121,1448.08 473.621,1438.24 466,1428.5C 463,1431.5 460,1434.5 457,1437.5C 456.5,1444.49 456.334,1451.49 456.5,1458.5C 452.167,1458.5 447.833,1458.5 443.5,1458.5C 443.5,1434.83 443.5,1411.17 443.5,1387.5C 447.833,1387.5 452.167,1387.5 456.5,1387.5C 456.333,1398.17 456.5,1408.84 457,1419.5C 466.833,1409 476.667,1398.5 486.5,1388C 490.486,1387.5 494.486,1387.33 498.5,1387.5 Z"/></g>
<g><path style="opacity:1" fill="#3f3f3f" d="M 996.5,1398.5 C 996.5,1395.17 996.5,1391.83 996.5,1388.5C 978.833,1388.5 961.167,1388.5 943.5,1388.5C 943.5,1391.83 943.5,1395.17 943.5,1398.5C 942.518,1395.04 942.185,1391.37 942.5,1387.5C 960.833,1387.5 979.167,1387.5 997.5,1387.5C 997.815,1391.37 997.482,1395.04 996.5,1398.5 Z"/></g>
<g><path style="opacity:1" fill="#2b2b2b" d="M 753.5,1388.5 C 747.5,1388.5 741.5,1388.5 735.5,1388.5C 735.5,1411.5 735.5,1434.5 735.5,1457.5C 734.502,1434.34 734.169,1411.01 734.5,1387.5C 741.022,1387.18 747.355,1387.51 753.5,1388.5 Z"/></g>
<g><path style="opacity:1" fill="#010101" d="M 802.5,1457.5 C 802.667,1439.5 802.5,1421.5 802,1403.5C 801.283,1404.04 800.783,1404.71 800.5,1405.5C 793.013,1420.47 785.513,1435.47 778,1450.5C 775.534,1451.78 773.034,1451.78 770.5,1450.5C 762.667,1434.83 754.833,1419.17 747,1403.5C 746.5,1421.5 746.333,1439.5 746.5,1457.5C 742.833,1457.5 739.167,1457.5 735.5,1457.5C 735.5,1434.5 735.5,1411.5 735.5,1388.5C 741.5,1388.5 747.5,1388.5 753.5,1388.5C 759.992,1402.82 766.992,1416.82 774.5,1430.5C 781.493,1416.54 788.493,1402.54 795.5,1388.5C 801.463,1387.5 807.463,1387.17 813.5,1387.5C 813.5,1410.83 813.5,1434.17 813.5,1457.5C 809.833,1457.5 806.167,1457.5 802.5,1457.5 Z"/></g>
<g><path style="opacity:1" fill="#000000" d="M 907.5,1388.5 C 907.5,1391.83 907.5,1395.17 907.5,1398.5C 895.167,1398.5 882.833,1398.5 870.5,1398.5C 870.5,1404.83 870.5,1411.17 870.5,1417.5C 881.5,1417.5 892.5,1417.5 903.5,1417.5C 903.5,1420.83 903.5,1424.17 903.5,1427.5C 892.5,1427.5 881.5,1427.5 870.5,1427.5C 870.5,1433.83 870.5,1440.17 870.5,1446.5C 882.989,1447.5 895.656,1447.83 908.5,1447.5C 908.5,1450.83 908.5,1454.17 908.5,1457.5C 892.167,1457.5 875.833,1457.5 859.5,1457.5C 859.5,1434.5 859.5,1411.5 859.5,1388.5C 875.5,1388.5 891.5,1388.5 907.5,1388.5 Z"/></g>
<g><path style="opacity:1" fill="#000000" d="M 996.5,1398.5 C 989.5,1398.5 982.5,1398.5 975.5,1398.5C 975.5,1418.17 975.5,1437.83 975.5,1457.5C 971.833,1457.5 968.167,1457.5 964.5,1457.5C 964.5,1437.83 964.5,1418.17 964.5,1398.5C 957.5,1398.5 950.5,1398.5 943.5,1398.5C 943.5,1395.17 943.5,1391.83 943.5,1388.5C 961.167,1388.5 978.833,1388.5 996.5,1388.5C 996.5,1391.83 996.5,1395.17 996.5,1398.5 Z"/></g>
<g><path style="opacity:1" fill="#030303" d="M 1143.5,1387.5 C 1147.17,1387.5 1150.83,1387.5 1154.5,1387.5C 1154.5,1407.17 1154.5,1426.83 1154.5,1446.5C 1165.17,1446.5 1175.83,1446.5 1186.5,1446.5C 1186.5,1450.17 1186.5,1453.83 1186.5,1457.5C 1172.17,1457.5 1157.83,1457.5 1143.5,1457.5C 1143.5,1434.17 1143.5,1410.83 1143.5,1387.5 Z"/></g>
<g><path style="opacity:1" fill="#6a6969" d="M 1445.5,1388.5 C 1441.83,1388.5 1438.17,1388.5 1434.5,1388.5C 1434.5,1411.5 1434.5,1434.5 1434.5,1457.5C 1438.17,1457.5 1441.83,1457.5 1445.5,1457.5C 1441.7,1458.48 1437.7,1458.82 1433.5,1458.5C 1433.5,1434.83 1433.5,1411.17 1433.5,1387.5C 1437.7,1387.18 1441.7,1387.52 1445.5,1388.5 Z"/></g>
<g><path style="opacity:1" fill="#000000" d="M 1445.5,1388.5 C 1445.5,1411.5 1445.5,1434.5 1445.5,1457.5C 1441.83,1457.5 1438.17,1457.5 1434.5,1457.5C 1434.5,1434.5 1434.5,1411.5 1434.5,1388.5C 1438.17,1388.5 1441.83,1388.5 1445.5,1388.5 Z"/></g>
<g><path style="opacity:1" fill="#010101" d="M 1528.5,1394.5 C 1537.51,1415.84 1546.51,1437.18 1555.5,1458.5C 1550.79,1458.83 1546.12,1458.49 1541.5,1457.5C 1539.5,1452.83 1537.5,1448.17 1535.5,1443.5C 1523.83,1442.17 1512.17,1442.17 1500.5,1443.5C 1498.45,1448.48 1496.12,1453.31 1493.5,1458C 1489.18,1458.5 1484.85,1458.67 1480.5,1458.5C 1481.77,1453.69 1483.44,1449.03 1485.5,1444.5C 1486.17,1444.5 1486.5,1444.17 1486.5,1443.5C 1495.08,1425.34 1503.41,1407.01 1511.5,1388.5C 1515.83,1387.17 1520.17,1387.17 1524.5,1388.5C 1525.3,1391.03 1526.64,1393.03 1528.5,1394.5 Z M 1518.5,1406.5 C 1522.39,1413.95 1526.06,1421.62 1529.5,1429.5C 1521.83,1430.83 1514.17,1430.83 1506.5,1429.5C 1509.45,1423.26 1512.12,1416.93 1514.5,1410.5C 1516.17,1409.5 1517.5,1408.17 1518.5,1406.5 Z"/></g>
<g><path style="opacity:1" fill="#a6a0a0" d="M 563.5,1396.5 C 587.315,1397.15 596.815,1409.15 592,1432.5C 583.464,1447.35 571.298,1451.18 555.5,1444C 545.138,1435.73 541.972,1425.23 546,1412.5C 549.503,1404.49 555.336,1399.16 563.5,1396.5 Z"/></g>
<g><path style="opacity:1" fill="#d7d7d7" d="M 1060.5,1396.5 C 1078.94,1395.62 1088.94,1404.29 1090.5,1422.5C 1090.62,1433.56 1085.62,1441.39 1075.5,1446C 1060.63,1450.83 1049.8,1446.33 1043,1432.5C 1037.92,1415 1043.75,1403 1060.5,1396.5 Z"/></g>
<g><path style="opacity:1" fill="#d7d6d6" d="M 1250.5,1396.5 C 1263.51,1395.69 1273.01,1401.03 1279,1412.5C 1282.91,1427.12 1278.41,1438.29 1265.5,1446C 1248.47,1450.9 1236.97,1445.07 1231,1428.5C 1229.12,1412.58 1235.62,1401.91 1250.5,1396.5 Z"/></g>
<g><path style="opacity:1" fill="#bcbab9" d="M 1518.5,1406.5 C 1517.5,1408.17 1516.17,1409.5 1514.5,1410.5C 1514.76,1407.98 1515.59,1405.65 1517,1403.5C 1517.67,1402.17 1518.33,1402.17 1519,1403.5C 1519.47,1404.58 1519.3,1405.58 1518.5,1406.5 Z"/></g>
<g><path style="opacity:1" fill="#757575" d="M 802.5,1457.5 C 801.833,1440.17 801.167,1422.83 800.5,1405.5C 800.783,1404.71 801.283,1404.04 802,1403.5C 802.5,1421.5 802.667,1439.5 802.5,1457.5 Z"/></g>
<g><path style="opacity:1" fill="#2d2828" d="M 907.5,1388.5 C 891.5,1388.5 875.5,1388.5 859.5,1388.5C 859.5,1411.5 859.5,1434.5 859.5,1457.5C 858.504,1443.34 858.171,1429.01 858.5,1414.5C 858.5,1405.5 858.5,1396.5 858.5,1387.5C 875.009,1387.17 891.342,1387.5 907.5,1388.5 Z"/></g>
<g><path style="opacity:1" fill="#000000" d="M 203.5,1419.5 C 248.833,1419.5 294.167,1419.5 339.5,1419.5C 339.739,1421.47 339.406,1423.3 338.5,1425C 258.834,1424.99 179.168,1424.66 99.5,1424C 97.8333,1423.67 96.1667,1423.33 94.5,1423C 93.1667,1422.33 93.1667,1421.67 94.5,1421C 131.002,1420.83 167.336,1420.33 203.5,1419.5 Z"/></g>
<g><path style="opacity:1" fill="#000000" d="M 1659.5,1419.5 C 1741.64,1419.21 1823.64,1420.04 1905.5,1422C 1903.71,1423.16 1901.71,1423.83 1899.5,1424C 1819.83,1424.66 1740.17,1424.99 1660.5,1425C 1659.59,1423.3 1659.26,1421.47 1659.5,1419.5 Z"/></g>
<g><path style="opacity:1" fill="#696969" d="M 1381.5,1424.5 C 1385.3,1423.52 1389.3,1423.18 1393.5,1423.5C 1393.83,1431.68 1393.49,1439.68 1392.5,1447.5C 1392.5,1439.83 1392.5,1432.17 1392.5,1424.5C 1388.83,1424.5 1385.17,1424.5 1381.5,1424.5 Z"/></g>
<g><path style="opacity:1" fill="#a39e9e" d="M 903.5,1417.5 C 904.482,1420.96 904.815,1424.63 904.5,1428.5C 893.495,1428.33 882.495,1428.5 871.5,1429C 878.004,1434.34 884.004,1440.17 889.5,1446.5C 883.167,1446.5 876.833,1446.5 870.5,1446.5C 870.5,1440.17 870.5,1433.83 870.5,1427.5C 881.5,1427.5 892.5,1427.5 903.5,1427.5C 903.5,1424.17 903.5,1420.83 903.5,1417.5 Z"/></g>
<g><path style="opacity:1" fill="#545252" d="M 870.5,1446.5 C 876.833,1446.5 883.167,1446.5 889.5,1446.5C 896.167,1446.5 902.833,1446.5 909.5,1446.5C 909.5,1450.17 909.5,1453.83 909.5,1457.5C 909.167,1457.5 908.833,1457.5 908.5,1457.5C 908.5,1454.17 908.5,1450.83 908.5,1447.5C 895.656,1447.83 882.989,1447.5 870.5,1446.5 Z"/></g>
<g><path style="opacity:1" fill="#d8d7d7" d="M 721.5,1574.5 C 736.868,1580.69 752.201,1587.19 767.5,1594C 849.256,1624.55 933.589,1641.72 1020.5,1645.5C 914.919,1646.52 815.252,1622.85 721.5,1574.5 Z"/></g>
</svg>
